<?xml version="1.0" encoding="UTF-8" standalone="no"?>
<!--Copyright (c) Microsoft Corporation. All rights reserved.-->

<!--Copyright (C) 2019 TypeFox and others.-->

<!--Licensed under the MIT License. See License.txt in the project root for license information.-->

<svg
   fill="#F6F6F6"
   height="28"
   viewBox="0 0 28 28"
   width="28"
   version="1.1"
   id="svg4"
   sodipodi:docname="fava-theia-icon.svg"
   inkscape:version="1.1.2 (08b2f3d93c, 2022-04-05)"
   xmlns:inkscape="http://www.inkscape.org/namespaces/inkscape"
   xmlns:sodipodi="http://sodipodi.sourceforge.net/DTD/sodipodi-0.dtd"
   xmlns="http://www.w3.org/2000/svg"
   xmlns:svg="http://www.w3.org/2000/svg">
  <defs
     id="defs8" />
  <sodipodi:namedview
     id="namedview6"
     pagecolor="#ffffff"
     bordercolor="#666666"
     borderopacity="1.0"
     inkscape:pageshadow="2"
     inkscape:pageopacity="0.0"
     inkscape:pagecheckerboard="0"
     showgrid="false"
     inkscape:zoom="6.3372555"
     inkscape:cx="-13.254949"
     inkscape:cy="-4.1816209"
     inkscape:window-width="1500"
     inkscape:window-height="936"
     inkscape:window-x="0"
     inkscape:window-y="0"
     inkscape:window-maximized="1"
     inkscape:current-layer="svg4" />
  <path
     d="m 15.654433,18.238656 c 0,1.347875 -0.436876,2.508125 -1.309876,3.481438 -0.872874,0.973437 -2.007249,1.575 -3.403937,1.803937 v 2.315125 c 0,0.12275 -0.03813,0.228 -0.1175,0.306875 -0.07875,0.079 -0.179375,0.122813 -0.3025,0.122813 H 8.7431203 c -0.11375,0 -0.211875,-0.035 -0.295625,-0.12275 -0.08313,-0.07894 -0.125,-0.184188 -0.125,-0.298125 v -2.315188 c -0.57875,-0.07894 -1.13875,-0.210437 -1.678125,-0.403375 -0.54375,-0.193125 -0.99125,-0.38625 -1.341875,-0.588125 -0.350625,-0.193125 -0.675625,-0.40375 -0.97375,-0.631875 -0.298125,-0.228125 -0.50875,-0.395 -0.61375,-0.5 -0.11375,-0.105625 -0.184375,-0.184375 -0.228125,-0.236875 -0.14875,-0.184375 -0.1575,-0.36875 -0.02625,-0.54375 l 1.35125,-1.780625 c 0.061875,-0.0875 0.158125,-0.140625 0.29875,-0.158125 0.131875,-0.0175 0.236875,0.02625 0.31625,0.1225 l 0.02625,0.02625 c 0.991875,0.876875 2.053125,1.429375 3.19375,1.6575 0.324875,0.07 0.649375,0.105 0.97375,0.105 0.7106247,0 1.3337497,-0.184375 1.8774997,-0.56125 0.535,-0.376875 0.807375,-0.911875 0.807375,-1.605 0,-0.245625 -0.07012,-0.4825 -0.201687,-0.70175 -0.131563,-0.219 -0.280625,-0.403125 -0.4475,-0.5525 -0.166875,-0.149375 -0.421,-0.315625 -0.771875,-0.490875 -0.350938,-0.184125 -0.640625,-0.324375 -0.86875,-0.420937 -0.2281247,-0.105 -0.5788747,-0.245625 -1.0526247,-0.42975 l -0.815875,-0.333125 c -0.201563,-0.07875 -0.47375,-0.193125 -0.815625,-0.350625 -0.34225,-0.149375 -0.6143755,-0.289375 -0.824813,-0.40375 -0.2104375,-0.114375 -0.45625,-0.271875 -0.745625,-0.465 -0.289375,-0.193125 -0.52625,-0.377063 -0.701875,-0.56125 -0.184125,-0.17875 -0.368375,-0.394625 -0.5701875,-0.648938 -0.201875,-0.245625 -0.3596875,-0.503125 -0.465,-0.762937 -0.114,-0.260625 -0.201875,-0.5525 -0.280625,-0.876875 -0.0525,-0.350625 -0.087813,-0.6925 -0.087813,-1.0525 0,-1.2187499 0.43,-2.2799999 1.28975,-3.2006249 C 5.8052453,6.2629688 6.9457453,5.6465313 8.3228703,5.3834688 v -2.38275 c 0,-0.114 0.04375,-0.213125 0.12475,-0.298125 0.085,-0.078937 0.184375,-0.1228125 0.298125,-0.1228125 h 1.7799997 c 0.123125,0 0.223125,0.039375 0.301875,0.11925 0.07906,0.078938 0.118563,0.180625 0.118563,0.3034375 v 2.3239375 c 0.5,0.053125 0.9825,0.155625 1.4475,0.304375 0.465,0.149375 0.85125,0.298125 1.140625,0.443125 0.289375,0.145625 0.570249,0.3106253 0.833437,0.4956253 0.263125,0.184375 0.43,0.313125 0.50875,0.383125 0.07894,0.07 0.140375,0.131875 0.193125,0.184375 0.149,0.16 0.166563,0.3275 0.06125,0.50375 l -1.061875,1.929375 c -0.07,0.131875 -0.175437,0.201875 -0.306875,0.210625 -0.122875,0.035625 -0.245625,0 -0.35975,-0.0875 -0.02625,-0.02625 -0.08794,-0.07875 -0.193125,-0.1575 -0.105187,-0.07875 -0.271875,-0.193125 -0.5175,-0.350625 -0.245625,-0.14875 -0.5,-0.289375 -0.77225,-0.420625 -0.271875,-0.1225 -0.605375,-0.236875 -0.9825,-0.341875 -0.38625,-0.09625 -0.754625,-0.149375 -1.1231247,-0.149375 -0.833437,0 -1.517687,0.193125 -2.044125,0.57 -0.52625,0.38625 -0.789375,0.868125 -0.789375,1.4737494 0,0.228125 0.035,0.43875 0.11375,0.631688 0.07,0.1925 0.201875,0.376875 0.38625,0.5525 0.184375,0.175625 0.359375,0.315625 0.5175,0.438125 0.158125,0.1225 0.405,0.254375 0.736875,0.412375 0.32625,0.157812 0.591875,0.271875 0.79375,0.359375 0.201875,0.07875 0.5087497,0.20175 0.9212497,0.359375 0.465,0.175625 0.824625,0.315937 1.07025,0.421125 0.245625,0.105187 0.578875,0.254375 1,0.464812 0.420938,0.210313 0.754375,0.394375 0.99125,0.56125 0.245625,0.1665 0.5175,0.385625 0.815875,0.66625 0.306875,0.271875 0.535,0.5525 0.701875,0.833125 0.166562,0.289375 0.3025,0.6225 0.416875,1.01725 0.11375,0.385875 0.169375,0.806875 0.169375,1.245312 l 0.04125,-0.04212"
     fill="#ffffff"
     id="path133"
     style="stroke-width:0.0625;fill:#ececec" />
  <path
     d="m 12.31712,18.238656 c 0,1.347875 0.436875,2.508125 1.309813,3.481438 0.872937,0.973437 2.007249,1.575 3.403937,1.803937 v 2.315125 c 0,0.12275 0.03862,0.228 0.1175,0.306875 0.07906,0.079 0.18,0.122813 0.30275,0.122813 h 1.776875 c 0.11375,0 0.211875,-0.035 0.295625,-0.12275 0.08312,-0.07894 0.125625,-0.184188 0.125625,-0.298125 v -2.315188 c 0.57875,-0.07894 1.13875,-0.210437 1.678125,-0.403375 0.54375,-0.193125 0.99125,-0.38625 1.341875,-0.588125 0.350625,-0.193125 0.675625,-0.40375 0.97375,-0.631875 0.298125,-0.228125 0.50875,-0.395 0.61375,-0.5 0.11375,-0.105625 0.18375,-0.184375 0.228125,-0.236875 0.14875,-0.184375 0.1575,-0.36875 0.02625,-0.54375 l -1.350625,-1.78 c -0.06125,-0.0875 -0.158125,-0.140625 -0.298125,-0.158125 -0.131875,-0.0175 -0.236875,0.02625 -0.31625,0.1225 l -0.02688,0.02625 c -0.99125,0.876875 -2.053125,1.429375 -3.19375,1.6575 -0.325,0.07 -0.649375,0.105 -0.97375,0.105 -0.710625,0 -1.33375,-0.184375 -1.8775,-0.56125 -0.535625,-0.3775 -0.8075,-0.9125 -0.8075,-1.605 0,-0.245625 0.07,-0.4825 0.201875,-0.701875 0.13125,-0.219375 0.280625,-0.40375 0.4475,-0.5525 0.166875,-0.14875 0.42125,-0.315625 0.771875,-0.49125 0.350625,-0.184375 0.64,-0.324375 0.868125,-0.42125 0.228125,-0.105375 0.57875,-0.245625 1.0525,-0.429875 l 0.815937,-0.333125 c 0.201875,-0.07875 0.47375,-0.19275 0.81575,-0.350625 0.341875,-0.14875 0.61375,-0.289375 0.824375,-0.403125 0.210625,-0.11375 0.45625,-0.271875 0.745625,-0.465 0.289375,-0.193125 0.52625,-0.377125 0.701875,-0.56125 0.184375,-0.178937 0.368125,-0.394687 0.57,-0.649 0.201875,-0.245187 0.3595,-0.503125 0.465,-0.7625 0.11375,-0.260625 0.201875,-0.5525 0.280625,-0.876875 0.07875,-0.324375 0.113938,-0.67 0.113938,-1.03125 0,-1.2118744 -0.43,-2.2799994 -1.289688,-3.1943744 C 22.19249,6.2980313 21.060802,5.6856563 19.683302,5.4225313 V 3.0094688 c 0,-0.114 -0.04375,-0.2148125 -0.12275,-0.298125 -0.1225,-0.087687 -0.219374,-0.1315625 -0.333125,-0.1315625 h -1.779375 c -0.122625,0 -0.220875,0.039375 -0.3,0.11925 -0.07875,0.078938 -0.118312,0.180625 -0.118312,0.3034375 v 2.3239375 c -0.500188,0.053125 -0.984375,0.155625 -1.45375,0.304375 -0.469375,0.149375 -0.851063,0.298125 -1.145813,0.443125 -0.295,0.145625 -0.573125,0.3106253 -0.836875,0.4956253 -0.263437,0.184375 -0.434375,0.313125 -0.5135,0.383125 -0.07937,0.07 -0.14375,0.131875 -0.196875,0.184375 -0.149187,0.16 -0.171062,0.3275 -0.06581,0.50375 l 1.066875,1.929375 c 0.07,0.131875 0.170875,0.201875 0.3025,0.210625 0.122625,0.035625 0.245625,0 0.3595,-0.0875 0.02625,-0.02625 0.0875,-0.07875 0.192812,-0.1575 0.105313,-0.07875 0.271875,-0.193125 0.5175,-0.350625 0.236875,-0.14875 0.49125,-0.289375 0.763125,-0.420625 0.271875,-0.1225 0.596563,-0.236875 0.9825,-0.341875 0.377313,-0.09625 0.754563,-0.149375 1.123125,-0.149375 0.833375,0 1.50875,0.193125 2.03525,0.57 0.526625,0.38625 0.789813,0.868125 0.789813,1.4737494 0,0.228125 -0.035,0.43875 -0.114,0.631875 -0.07875,0.193 -0.210625,0.376875 -0.395,0.5525 -0.184375,0.175438 -0.36,0.315625 -0.52625,0.4385 -0.16625,0.122875 -0.4125,0.254375 -0.736875,0.4125 -0.33375,0.15775 -0.596875,0.271875 -0.79875,0.359375 -0.201875,0.07875 -0.50875,0.201688 -0.92125,0.359375 -0.465,0.175625 -0.824375,0.315875 -1.070625,0.421063 -0.24625,0.105187 -0.57875,0.254375 -1,0.464812 -0.42125,0.210125 -0.754375,0.394375 -1,0.56125 -0.245625,0.16625 -0.50875,0.385625 -0.81625,0.66625 -0.298125,0.271875 -0.535,0.5525 -0.693125,0.833125 -0.166563,0.289375 -0.306875,0.6225 -0.421,1.017062 -0.114,0.385875 -0.175625,0.806875 -0.175625,1.245313 l 0.035,-0.04207"
     fill="#a6c4da"
     id="path135"
     style="stroke-width:0.0625" />
</svg>
