<?xml version="1.0" encoding="UTF-8" standalone="no"?>
<!-- Created with Inkscape (http://www.inkscape.org/) -->

<svg
   width="100mm"
   height="100mm"
   viewBox="0 0 100 100"
   version="1.1"
   id="svg4896"
   inkscape:version="1.2.1 (9c6d41e410, 2022-07-14)"
   sodipodi:docname="beancolage-logo-circle (copy).svg"
   inkscape:export-filename="../beancolage/theia-blueprint/applications/electron/resources/icons/512x512-alpha ignored.png"
   inkscape:export-xdpi="130.048"
   inkscape:export-ydpi="130.048"
   xmlns:inkscape="http://www.inkscape.org/namespaces/inkscape"
   xmlns:sodipodi="http://sodipodi.sourceforge.net/DTD/sodipodi-0.dtd"
   xmlns="http://www.w3.org/2000/svg"
   xmlns:svg="http://www.w3.org/2000/svg">
  <sodipodi:namedview
     id="namedview4898"
     pagecolor="#ffffff"
     bordercolor="#000000"
     borderopacity="0.25"
     inkscape:showpageshadow="2"
     inkscape:pageopacity="0.0"
     inkscape:pagecheckerboard="0"
     inkscape:deskcolor="#d1d1d1"
     inkscape:document-units="mm"
     showgrid="false"
     showguides="false"
     inkscape:zoom="0.55229236"
     inkscape:cx="172.91566"
     inkscape:cy="72.425409"
     inkscape:window-width="1500"
     inkscape:window-height="931"
     inkscape:window-x="0"
     inkscape:window-y="0"
     inkscape:window-maximized="1"
     inkscape:current-layer="layer1" />
  <defs
     id="defs4893">
    <filter
       style="color-interpolation-filters:sRGB"
       inkscape:label="Blur"
       id="filter26127"
       x="-0.28928"
       y="-0.056467731"
       width="1.57856"
       height="1.1129355">
      <feGaussianBlur
         stdDeviation="21.696 4.23508"
         result="blur"
         id="feGaussianBlur26125" />
    </filter>
    <clipPath
       clipPathUnits="userSpaceOnUse"
       id="clipPath28707">
      <circle
         style="display:inline;opacity:1;fill:#ffffff;stroke-width:0.269629"
         id="circle28709"
         cx="-362.82574"
         cy="-99.373688"
         r="90"
         transform="scale(-1)" />
    </clipPath>
    <clipPath
       clipPathUnits="userSpaceOnUse"
       id="clipPath28711">
      <circle
         style="display:inline;opacity:1;fill:#ffffff;stroke-width:0.269629"
         id="circle28713"
         cx="361.44589"
         cy="99.464386"
         r="90" />
    </clipPath>
    <clipPath
       clipPathUnits="userSpaceOnUse"
       id="clipPath28715">
      <circle
         style="display:inline;opacity:1;fill:#ffffff;stroke-width:0.269629"
         id="circle28717"
         cx="105"
         cy="148.5"
         r="90" />
    </clipPath>
    <clipPath
       clipPathUnits="userSpaceOnUse"
       id="clipPath28719">
      <circle
         style="display:inline;opacity:1;fill:#ffffff;stroke-width:0.269629"
         id="circle28721"
         cx="105"
         cy="148.5"
         r="90" />
    </clipPath>
    <clipPath
       clipPathUnits="userSpaceOnUse"
       id="clipPath28719-5">
      <circle
         style="display:inline;opacity:1;fill:#ffffff;stroke-width:0.269629"
         id="circle28721-0"
         cx="105"
         cy="148.5"
         r="90" />
    </clipPath>
    <clipPath
       clipPathUnits="userSpaceOnUse"
       id="clipPath28719-58">
      <circle
         style="display:inline;opacity:1;fill:#ffffff;stroke-width:0.269629"
         id="circle28721-6"
         cx="105"
         cy="148.5"
         r="90" />
    </clipPath>
  </defs>
  <g
     inkscape:label="Layer 1"
     inkscape:groupmode="layer"
     id="layer1"
     transform="matrix(0.55555555,0,0,0.55555555,-8.3333336,-32.499999)">
    <circle
       style="display:inline;opacity:1;fill:#005d37;fill-opacity:1;stroke-width:0.26963"
       id="path23094-8"
       cx="105"
       cy="148.5"
       r="90"
       clip-path="url(#clipPath28719)" />
    <g
       inkscape:groupmode="layer"
       id="layer9"
       inkscape:label="icon bean layout"
       transform="translate(-256.4459,49.035607)"
       clip-path="url(#clipPath28711)">
      <path
         d="m 339.92956,60.883065 c -0.30489,0.603002 0.33825,0.867123 1.57028,1.2819 1.23204,0.414773 5.15866,0.536656 7.26024,0.02268 2.1016,-0.513983 5.12982,-1.504219 5.9032,-2.762442 0.77339,-1.258223 1.26793,-1.726963 0.40877,-3.947559 -0.85916,-2.220592 -5.2388,-2.621852 -5.2388,-2.621852 0,0 -3.93185,-0.193604 -6.78117,1.600763 -2.84932,1.794364 -3.32064,2.910358 -3.32064,2.910358 0,0 -0.68352,0.843064 -0.63062,1.896746 0.053,1.053673 0.74326,1.291692 0.74326,1.291692 1.15372,-0.108584 0.12639,0.246797 0.0854,0.327721 z"
         id="path3050-1-3-0"
         style="fill:#ffffff;stroke:none;stroke-width:0.0474606"
         sodipodi:nodetypes="ssssscscscs" />
      <path
         d="m 369.82414,91.340771 c -0.62381,0.259685 -0.30718,0.878611 0.35874,1.995081 0.66592,1.11647 3.56889,3.763344 5.49938,4.74009 1.93051,0.976739 4.8746,2.194538 6.28046,1.742008 1.40588,-0.452527 2.0864,-0.486828 2.87839,-2.732263 0.79198,-2.245429 -2.27333,-5.399177 -2.27333,-5.399177 0,0 -2.86029,-2.704739 -6.19161,-3.195424 -3.3313,-0.490694 -4.41522,0.05032 -4.41522,0.05032 0,0 -1.06756,0.195666 -1.71281,1.030353 -0.64518,0.834733 -0.27573,1.464545 -0.27573,1.464545 0.94689,0.66802 -0.0647,0.269614 -0.14829,0.304454 z"
         id="path3050-1-3-0-9"
         style="fill:#ffffff;stroke:none;stroke-width:0.0474606"
         sodipodi:nodetypes="ssssscscscs" />
      <path
         d="m 397.87915,106.12498 c -0.67455,0.0395 -0.57974,0.72817 -0.31924,2.00178 0.2605,1.27362 2.12824,4.72973 3.62864,6.28845 1.50043,1.55872 3.87825,3.67926 5.3547,3.71565 1.47647,0.0364 2.13023,0.22842 3.61839,-1.63024 1.48814,-1.85866 -0.36571,-5.84682 -0.36571,-5.84682 0,0 -1.80836,-3.49667 -4.79153,-5.05847 -2.98314,-1.56179 -4.18483,-1.4085 -4.18483,-1.4085 0,0 -1.07237,-0.16732 -1.95677,0.40789 -0.88436,0.57529 -0.74327,1.2917 -0.74327,1.2917 0.67364,0.9429 -0.14999,0.23319 -0.24039,0.23852 z"
         id="path3050-1-3-0-9-6"
         style="fill:#ffffff;stroke:none;stroke-width:0.0474606"
         sodipodi:nodetypes="ssssscscscs" />
      <path
         d="m 396.60902,128.07839 c -0.40643,-0.5398 -0.92737,-0.0795 -1.84361,0.84269 -0.91626,0.9222 -2.75978,4.39129 -3.22681,6.50381 -0.46702,2.11252 -0.91598,5.26675 -0.12868,6.51631 0.78731,1.24957 0.98945,1.90027 3.3612,2.11016 2.37173,0.20987 4.66597,-3.54228 4.66597,-3.54228 0,0 1.91017,-3.4421 1.55867,-6.79098 -0.3515,-3.34885 -1.14459,-4.26457 -1.14459,-4.26457 0,0 -0.45452,-0.98559 -1.42323,-1.40348 -0.96876,-0.41781 -1.48716,0.0964 -1.48716,0.0964 -0.41209,1.08306 -0.27723,0.004 -0.33173,-0.0681 z"
         id="path3050-1-3-0-9-6-1"
         style="fill:#ffffff;stroke:none;stroke-width:0.0474606"
         sodipodi:nodetypes="ssssscscscs" />
      <path
         d="m 417.58613,85.745411 c 0.67138,0.07632 0.53906,0.758781 0.20931,2.016244 -0.32974,1.257465 -2.38365,4.606293 -3.96703,6.080646 -1.58341,1.474349 -4.07361,3.461717 -5.54984,3.417323 -1.47625,-0.04438 -2.13953,0.111608 -3.52385,-1.82563 -1.38428,-1.937245 0.68484,-5.818079 0.68484,-5.818079 0,0 1.99684,-3.392572 5.06094,-4.788928 3.06406,-1.396359 4.25558,-1.177589 4.25558,-1.177589 0,0 1.07991,-0.108437 1.93154,0.514257 0.85158,0.622785 0.67153,1.330414 0.67153,1.330414 -0.72418,0.904655 0.13702,0.241041 0.22699,0.251299 z"
         id="path3050-1-3-0-9-6-3"
         style="fill:#ffffff;stroke:none;stroke-width:0.0474606"
         sodipodi:nodetypes="ssssscscscs" />
      <path
         d="m 427.60844,116.01211 c -0.40816,-0.5385 -0.92761,-0.0765 -1.8409,0.84861 -0.91328,0.92513 -2.74564,4.40014 -3.20589,6.51413 -0.46023,2.11402 -0.89906,5.26967 -0.10774,6.51669 0.79132,1.24703 0.99555,1.89708 3.36794,2.09938 2.3724,0.20225 4.65457,-3.55726 4.65457,-3.55726 0,0 1.8991,-3.44822 1.53684,-6.79595 -0.36226,-3.34769 -1.15829,-4.26087 -1.15829,-4.26087 0,0 -0.45767,-0.98413 -1.42772,-1.3989 -0.9701,-0.41469 -1.48685,0.10118 -1.48685,0.10118 -0.40861,1.08439 -0.27721,0.005 -0.33194,-0.067 z"
         id="path3050-1-3-0-9-6-8"
         style="fill:#ffffff;stroke:none;stroke-width:0.0474606"
         sodipodi:nodetypes="ssssscscscs" />
      <path
         d="m 437.46592,132.49291 c 0.23053,-0.63515 -0.4395,-0.82045 -1.71227,-1.08498 -1.2728,-0.2645 -5.18582,0.084 -7.21088,0.84548 -2.02508,0.76154 -4.91321,2.10671 -5.5306,3.44837 -0.61742,1.34167 -1.05235,1.86617 0.0661,3.96814 1.11848,2.10194 5.51467,1.9767 5.51467,1.9767 0,0 3.92678,-0.27785 6.54117,-2.4 2.61434,-2.12215 2.94885,-3.28647 2.94885,-3.28647 0,0 0.57784,-0.91872 0.39936,-1.95852 -0.17859,-1.0398 -0.89239,-1.19358 -0.89239,-1.19358 -1.13246,0.24577 -0.15473,-0.23006 -0.12399,-0.31512 z"
         id="path3050-1-3-0-9-6-8-5"
         style="fill:#ffffff;stroke:none;stroke-width:0.0474606"
         sodipodi:nodetypes="ssssscscscs" />
      <path
         d="m 386.26918,84.522823 c 0.43041,-0.386882 -8.5e-4,-0.797185 -0.85607,-1.510432 -0.85497,-0.71325 -3.95202,-2.028383 -5.78925,-2.269857 -1.83724,-0.24146 -4.56197,-0.390083 -5.56963,0.374571 -1.00768,0.764659 -1.54788,0.985498 -1.55067,3.024808 -0.003,2.039293 3.3693,3.717968 3.3693,3.717968 0,0 3.07897,1.374009 5.91029,0.825157 2.83129,-0.54884 3.55368,-1.293637 3.55368,-1.293637 0,0 0.80718,-0.461076 1.09174,-1.318704 0.28449,-0.857645 -0.1928,-1.261756 -0.1928,-1.261756 -0.95477,-0.271118 -0.0242,-0.236237 0.0334,-0.288115 z"
         id="path3050-1-3-0-9-7"
         style="fill:#ffffff;stroke:none;stroke-width:0.0406494"
         sodipodi:nodetypes="ssssscscscs" />
      <path
         d="m 417.10715,102.13986 c 0.43041,-0.38689 -8.5e-4,-0.79719 -0.85607,-1.51044 -0.85497,-0.713247 -3.95202,-2.028377 -5.78925,-2.269851 -1.83724,-0.24146 -4.56197,-0.390083 -5.56963,0.374571 -1.00768,0.764663 -1.54788,0.985503 -1.55067,3.02481 -0.003,2.03929 3.3693,3.71796 3.3693,3.71796 0,0 3.07897,1.37401 5.91029,0.82516 2.83129,-0.54884 3.55368,-1.29364 3.55368,-1.29364 0,0 0.80718,-0.46107 1.09174,-1.3187 0.28449,-0.85765 -0.1928,-1.26176 -0.1928,-1.26176 -0.95477,-0.27111 -0.0242,-0.23623 0.0334,-0.28811 z"
         id="path3050-1-3-0-9-7-9"
         style="fill:#ffffff;stroke:none;stroke-width:0.0406494"
         sodipodi:nodetypes="ssssscscscs" />
      <path
         d="m 339.67534,64.71078 c 0.60606,-1.00875 0.2226,-1.42161 -1.42377,-2.26342 -2.01585,-1.03073 -3.18856,-0.20376 -4.4728,0.69364 -1.91421,1.33762 -1.19752,4.05251 -0.22379,5.30489 1.38906,1.78657 3.25636,1.91206 5.43844,0.51999 1.54905,-0.98822 1.03813,-3.65486 1.03813,-3.65486 -0.38195,-0.18002 -0.43754,-0.46488 -0.35621,-0.60024 z"
         id="path3050-1-8-3-4"
         style="font-variation-settings:normal;opacity:1;vector-effect:none;fill:#ffffff;fill-opacity:1;stroke:none;stroke-width:0.0826585;stroke-linecap:butt;stroke-linejoin:miter;stroke-miterlimit:4;stroke-dasharray:none;stroke-dashoffset:0;stroke-opacity:1;-inkscape-stroke:none;stop-color:#000000;stop-opacity:1"
         sodipodi:nodetypes="ssssscs" />
      <path
         d="m 348.40778,45.076852 c -0.56265,-1.03359 -1.11287,-0.912157 -2.67276,0.08078 -1.90996,1.215778 -1.79112,2.645814 -1.66806,4.20769 0.18343,2.328042 2.8872,3.085605 4.46028,2.880597 2.24406,-0.292449 3.2983,-1.838781 3.20363,-4.425356 -0.0672,-1.836197 -2.62511,-2.746721 -2.62511,-2.746721 -0.34872,0.238097 -0.62248,0.141703 -0.69798,0.003 z"
         id="path3050-1-8-3-4-8"
         style="fill:#ffffff;stroke:none;stroke-width:0.0826585"
         sodipodi:nodetypes="ssssscs" />
      <path
         style="fill:#ffffff;stroke-width:0.160732"
         d="m 335.9655,74.432103 c -0.63978,-5.161394 -7.55221,-6.077742 -10.1755,0.607492 -1.95696,4.98715 -1.95787,7.76891 0,12.75734 2.62329,6.68385 9.53572,5.76963 10.1755,0.60749 0.56331,-4.54511 -2.52645,-3.47754 -2.56731,-6.98616 -0.0409,-3.508616 3.13117,-2.43714 2.56731,-6.986162 z"
         id="path4787-1-6-6"
         sodipodi:nodetypes="sssszs" />
      <path
         style="fill:#ffffff;stroke-width:0.160732"
         d="m 369.13026,48.769035 c 5.16139,-0.63978 6.07774,-7.55221 -0.6075,-10.1755 -4.98715,-1.95696 -7.76891,-1.95787 -12.75734,0 -6.68385,2.62329 -5.76963,9.53572 -0.60749,10.1755 4.54511,0.56331 3.47754,-2.52645 6.98616,-2.56731 3.50862,-0.0409 2.43714,3.13117 6.98617,2.56731 z"
         id="path4787-1-6-6-8"
         sodipodi:nodetypes="sssszs" />
      <path
         style="fill:#ffffff;stroke-width:0.160732"
         d="m 369.13026,27.602367 c 5.16139,-0.63978 6.07774,-7.55221 -0.6075,-10.1755 -4.98715,-1.95696 -7.76891,-1.95787 -12.75734,0 -6.68385,2.62329 -5.76963,9.53572 -0.60749,10.1755 4.54511,0.56331 3.47754,-2.52645 6.98616,-2.56731 3.50862,-0.0409 2.43714,3.13117 6.98617,2.56731 z"
         id="path4787-1-6-6-8-2"
         sodipodi:nodetypes="sssszs" />
      <path
         d="m 384.3284,60.883065 c 0.30489,0.603002 -0.33825,0.867123 -1.57028,1.2819 -1.23204,0.414773 -5.15866,0.536656 -7.26024,0.02268 -2.1016,-0.513983 -5.12982,-1.504219 -5.9032,-2.762442 -0.77339,-1.258223 -1.26793,-1.726963 -0.40877,-3.947559 0.85916,-2.220592 5.2388,-2.621852 5.2388,-2.621852 0,0 3.93185,-0.193604 6.78117,1.600763 2.84932,1.794364 3.32064,2.910358 3.32064,2.910358 0,0 0.68352,0.843064 0.63062,1.896746 -0.053,1.053673 -0.74326,1.291692 -0.74326,1.291692 -1.15372,-0.108584 -0.12639,0.246797 -0.0854,0.327721 z"
         id="path3050-1-3-0-5"
         style="fill:#ffffff;stroke:none;stroke-width:0.0474606"
         sodipodi:nodetypes="ssssscscscs" />
      <path
         d="m 384.58262,64.71078 c -0.60606,-1.00875 -0.2226,-1.42161 1.42377,-2.26342 2.01585,-1.03073 3.18856,-0.20376 4.4728,0.69364 1.91421,1.33762 1.19752,4.05251 0.22379,5.30489 -1.38906,1.78657 -3.25636,1.91206 -5.43844,0.51999 -1.54905,-0.98822 -1.03813,-3.65486 -1.03813,-3.65486 0.38195,-0.18002 0.43754,-0.46488 0.35621,-0.60024 z"
         id="path3050-1-8-3-4-4"
         style="font-variation-settings:normal;vector-effect:none;fill:#ffffff;fill-opacity:1;stroke:none;stroke-width:0.0826585;stroke-linecap:butt;stroke-linejoin:miter;stroke-miterlimit:4;stroke-dasharray:none;stroke-dashoffset:0;stroke-opacity:1;-inkscape-stroke:none;stop-color:#000000"
         sodipodi:nodetypes="ssssscs" />
      <path
         d="m 383.75406,101.59813 c -0.60606,-1.00875 -0.2226,-1.42161 1.42377,-2.263414 2.01585,-1.030729 3.18856,-0.20376 4.4728,0.693634 1.91421,1.33762 1.19752,4.05251 0.22379,5.30489 -1.38906,1.78657 -3.25636,1.91206 -5.43844,0.51999 -1.54905,-0.98822 -1.03813,-3.65486 -1.03813,-3.65486 0.38195,-0.18002 0.43754,-0.46488 0.35621,-0.60024 z"
         id="path3050-1-8-3-4-4-9"
         style="font-variation-settings:normal;vector-effect:none;fill:#ffffff;fill-opacity:1;stroke:none;stroke-width:0.0826585;stroke-linecap:butt;stroke-linejoin:miter;stroke-miterlimit:4;stroke-dasharray:none;stroke-dashoffset:0;stroke-opacity:1;-inkscape-stroke:none;stop-color:#000000"
         sodipodi:nodetypes="ssssscs" />
      <path
         d="m 405.27365,86.566084 c 0.81263,0.851183 0.52911,1.338125 -0.89243,2.520664 -1.74056,1.447933 -3.06615,0.898436 -4.516,0.304703 -2.16106,-0.885004 -2.05755,-3.69099 -1.38235,-5.126508 0.9632,-2.047822 2.75746,-2.579981 5.19181,-1.700634 1.72814,0.624241 1.81479,3.338002 1.81479,3.338002 -0.33314,0.259442 -0.32487,0.549557 -0.21582,0.663773 z"
         id="path3050-1-8-3-4-4-9-7"
         style="font-variation-settings:normal;vector-effect:none;fill:#ffffff;fill-opacity:1;stroke:none;stroke-width:0.0826585;stroke-linecap:butt;stroke-linejoin:miter;stroke-miterlimit:4;stroke-dasharray:none;stroke-dashoffset:0;stroke-opacity:1;-inkscape-stroke:none;stop-color:#000000"
         sodipodi:nodetypes="ssssscs" />
      <path
         d="m 419.71782,99.617233 c -0.32042,1.132347 -0.88388,1.135467 -2.62458,0.511637 -2.13134,-0.763824 -2.33134,-2.184785 -2.55635,-3.735253 -0.33538,-2.311047 2.13424,-3.647179 3.71375,-3.794737 2.25322,-0.210498 3.62301,1.064747 4.10207,3.608329 0.34009,1.805681 -1.9535,3.258769 -1.9535,3.258769 -0.39269,-0.15518 -0.6384,-6.93e-4 -0.68139,0.151255 z"
         id="path3050-1-8-3-4-4-9-7-1"
         style="font-variation-settings:normal;vector-effect:none;fill:#ffffff;fill-opacity:1;stroke:none;stroke-width:0.0826585;stroke-linecap:butt;stroke-linejoin:miter;stroke-miterlimit:4;stroke-dasharray:none;stroke-dashoffset:0;stroke-opacity:1;-inkscape-stroke:none;stop-color:#000000"
         sodipodi:nodetypes="ssssscs" />
      <path
         d="m 418.4751,130.26597 c -0.40607,-1.43505 -1.12016,-1.439 -3.32619,-0.64841 -2.70109,0.96802 -2.95455,2.76884 -3.23971,4.73379 -0.42504,2.92884 2.70477,4.62215 4.70651,4.80915 2.85556,0.26677 4.59152,-1.34938 5.19864,-4.57291 0.43101,-2.28839 -2.47571,-4.12992 -2.47571,-4.12992 -0.49766,0.19666 -0.80906,8.7e-4 -0.86354,-0.1917 z"
         id="path3050-1-8-3-4-4-9-7-1-80"
         style="font-variation-settings:normal;vector-effect:none;fill:#ffffff;fill-opacity:1;stroke:none;stroke-width:0.104755;stroke-linecap:butt;stroke-linejoin:miter;stroke-miterlimit:4;stroke-dasharray:none;stroke-dashoffset:0;stroke-opacity:1;-inkscape-stroke:none;stop-color:#000000"
         sodipodi:nodetypes="ssssscs" />
      <path
         d="m 436.11091,105.10355 c -0.32042,1.13234 -0.88388,1.13546 -2.62458,0.51163 -2.13134,-0.76382 -2.33134,-2.18478 -2.55635,-3.73525 -0.33538,-2.311047 2.13424,-3.647168 3.71375,-3.794728 2.25322,-0.210493 3.62301,1.064744 4.10207,3.608318 0.34009,1.80568 -1.9535,3.25877 -1.9535,3.25877 -0.39269,-0.15518 -0.6384,-6.9e-4 -0.68139,0.15126 z"
         id="path3050-1-8-3-4-4-9-7-1-8"
         style="font-variation-settings:normal;vector-effect:none;fill:#ffffff;fill-opacity:1;stroke:none;stroke-width:0.0826585;stroke-linecap:butt;stroke-linejoin:miter;stroke-miterlimit:4;stroke-dasharray:none;stroke-dashoffset:0;stroke-opacity:1;-inkscape-stroke:none;stop-color:#000000"
         sodipodi:nodetypes="ssssscs" />
      <path
         d="m 422.42724,141.3639 c -0.32042,-1.13234 -0.88388,-1.13546 -2.62458,-0.51163 -2.13134,0.76382 -2.33134,2.18478 -2.55635,3.73525 -0.33538,2.31105 2.13424,3.64717 3.71375,3.79473 2.25322,0.21049 3.62301,-1.06475 4.10207,-3.60832 0.34009,-1.80568 -1.9535,-3.25877 -1.9535,-3.25877 -0.39269,0.15518 -0.6384,6.9e-4 -0.68139,-0.15126 z"
         id="path3050-1-8-3-4-4-9-7-1-8-1"
         style="font-variation-settings:normal;vector-effect:none;fill:#ffffff;fill-opacity:1;stroke:none;stroke-width:0.0826585;stroke-linecap:butt;stroke-linejoin:miter;stroke-miterlimit:4;stroke-dasharray:none;stroke-dashoffset:0;stroke-opacity:1;-inkscape-stroke:none;stop-color:#000000"
         sodipodi:nodetypes="ssssscs" />
      <path
         d="m 401.0502,150.08696 c 1.15046,0.24763 1.41729,-0.24866 1.68201,-2.07872 0.32413,-2.24075 -0.83738,-3.08337 -2.10157,-4.00879 -1.88435,-1.37937 -4.22207,0.17605 -5.09268,1.5022 -1.24194,1.8918 -0.75739,3.69949 1.26503,5.31476 1.43571,1.14668 3.79425,-0.19842 3.79425,-0.19842 0.047,-0.41962 0.29859,-0.56427 0.45296,-0.53103 z"
         id="path3050-1-8-3-4-4-9-7-1-8-1-1"
         style="font-variation-settings:normal;vector-effect:none;fill:#ffffff;fill-opacity:1;stroke:none;stroke-width:0.0826585;stroke-linecap:butt;stroke-linejoin:miter;stroke-miterlimit:4;stroke-dasharray:none;stroke-dashoffset:0;stroke-opacity:1;-inkscape-stroke:none;stop-color:#000000"
         sodipodi:nodetypes="ssssscs" />
      <path
         d="m 375.85018,45.076852 c 0.56265,-1.03359 1.11287,-0.912157 2.67276,0.08078 1.90996,1.215778 1.79112,2.645814 1.66806,4.20769 -0.18343,2.328042 -2.8872,3.085605 -4.46028,2.880597 -2.24406,-0.292449 -3.2983,-1.838781 -3.20363,-4.425356 0.0672,-1.836197 2.62511,-2.746721 2.62511,-2.746721 0.34872,0.238097 0.62248,0.141703 0.69798,0.003 z"
         id="path3050-1-8-3-4-8-0"
         style="fill:#ffffff;stroke:none;stroke-width:0.0826585"
         sodipodi:nodetypes="ssssscs" />
      <path
         style="fill:#ffffff;stroke-width:0.264583"
         d="m 366.86272,77.849352 c -4.47354,-4.322029 -10.83899,-4.26633 -13.09282,-0.658062 -2.89228,4.630404 -0.80744,8.431237 0.53897,9.272239 1.3464,0.841003 2.22387,1.389094 4.34956,1.22067 1.31536,-0.104215 1.60525,2.9e-4 2.35887,0.471019 0.80919,0.505445 0.32759,1.207018 2.34612,2.467849 2.01854,1.26083 5.52573,0.905117 7.68966,-2.636223 1.97773,-3.236654 0.85629,-8.530765 -4.19036,-10.137492 z"
         id="path5104-3-4-8"
         sodipodi:nodetypes="cszsszsc" />
      <path
         style="fill:#ffffff;stroke-width:0.264583"
         d="m 400.13829,91.309052 c -3.16055,-5.357555 -9.31083,-6.999551 -12.44442,-4.122059 -4.02125,3.692618 -3.02424,7.911488 -1.95052,9.080769 1.07372,1.169279 1.77347,1.931313 3.86722,2.335234 1.29559,0.249948 1.54717,0.4279 2.14816,1.082375 0.64531,0.702739 -0.006,1.250679 1.60394,3.003669 1.60973,1.75299 5.08495,2.34441 8.11406,-0.49253 2.76847,-2.592868 3.09784,-7.994419 -1.33844,-10.887458 z"
         id="path5104-3-4-8-4"
         sodipodi:nodetypes="cszsszsc" />
      <path
         style="fill:#ffffff;stroke-width:0.225196"
         d="m 395.44198,74.400596 c -3.62666,-3.857127 -9.04055,-4.06978 -11.10405,-1.094263 -2.64802,3.818419 -1.03084,7.134874 0.0795,7.904846 1.11029,0.769983 1.83389,1.271788 3.64793,1.215432 1.12253,-0.03493 1.36471,0.06579 1.98617,0.496788 0.66728,0.462759 0.22921,1.039538 1.89376,2.193898 1.66456,1.154349 4.66075,0.995197 6.64508,-1.927103 1.81359,-2.670873 1.07644,-7.21749 -3.14836,-8.789598 z"
         id="path5104-3-4-8-6"
         sodipodi:nodetypes="cszsszsc" />
      <path
         style="fill:#ffffff;stroke-width:0.210244"
         d="m 410.77552,126.47992 c 0.17656,-4.93966 -3.23869,-8.67099 -6.56816,-8.08535 -4.27264,0.75154 -5.4105,4.00294 -5.19194,5.24533 0.21851,1.24238 0.36094,2.05204 1.58995,3.21849 0.76052,0.72177 0.8528,0.94859 0.97512,1.64397 0.13132,0.74666 -0.53908,0.83492 -0.21147,2.69749 0.32762,1.86257 2.40136,3.74573 5.64353,3.14253 2.9632,-0.55131 5.49525,-4.02696 3.76299,-7.86244 z"
         id="path5104-3-4-8-6-4"
         sodipodi:nodetypes="cszsszsc" />
      <path
         style="fill:#ffffff;stroke-width:0.210244"
         d="m 404.40342,145.99381 c 3.06908,3.87455 8.08861,4.49995 10.24319,1.89494 2.76492,-3.34298 1.52245,-6.55586 0.5506,-7.3598 -0.97204,-0.80399 -1.60554,-1.32793 -3.29752,-1.41878 -1.04699,-0.0562 -1.26433,-0.16899 -1.80842,-0.61896 -0.58419,-0.4832 -0.13111,-0.98515 -1.58841,-2.19046 -1.45731,-1.20532 -4.2571,-1.2939 -6.33383,1.26787 -1.89805,2.34136 -1.57139,6.6291 2.2346,8.42525 z"
         id="path5104-3-4-8-6-4-0"
         sodipodi:nodetypes="cszsszsc" />
      <path
         style="fill:#ffffff;stroke-width:0.210244"
         d="m 431.18753,106.18054 c -0.67262,-4.89683 -4.67683,-7.987632 -7.85667,-6.840041 -4.08062,1.472681 -4.64441,4.870971 -4.21616,6.057531 0.4282,1.18654 0.70729,1.95982 2.11803,2.89838 0.87296,0.58075 1.00275,0.7884 1.24244,1.45252 0.25734,0.71311 -0.38802,0.91496 0.25395,2.69383 0.64199,1.77886 3.0078,3.27875 6.09861,2.12883 2.82488,-1.051 4.72379,-4.90918 2.35983,-8.39103 z"
         id="path5104-3-4-8-6-4-4"
         sodipodi:nodetypes="cszsszsc" />
      <path
         style="fill:#ffffff;stroke-width:0.160732"
         d="m 411.15879,124.40596 c 0.63978,5.16139 7.55221,6.07774 10.1755,-0.60749 1.95696,-4.98715 1.95787,-7.76891 0,-12.75734 -2.62329,-6.68385 -9.53572,-5.76963 -10.1755,-0.60749 -0.56331,4.54511 2.52645,3.47754 2.56731,6.98616 0.0409,3.50861 -3.13117,2.43714 -2.56731,6.98616 z"
         id="path9120-2"
         sodipodi:nodetypes="sssszs" />
      <path
         style="fill:#ffffff;stroke-width:0.160732"
         d="m 432.85464,124.40596 c 0.63978,5.16139 7.55221,6.07774 10.1755,-0.60749 1.95696,-4.98715 1.95787,-7.76891 0,-12.75734 -2.62329,-6.68385 -9.53572,-5.76963 -10.1755,-0.60749 -0.56331,4.54511 2.52645,3.47754 2.56731,6.98616 0.0409,3.50861 -3.13117,2.43714 -2.56731,6.98616 z"
         id="path9120-2-5"
         sodipodi:nodetypes="sssszs" />
    </g>
    <g
       inkscape:groupmode="layer"
       id="g10417"
       inkscape:label="icon bean layout copy 1"
       transform="rotate(180,233.91288,123.93684)"
       clip-path="url(#clipPath28707)">
      <path
         d="m 339.92956,60.883065 c -0.30489,0.603002 0.33825,0.867123 1.57028,1.2819 1.23204,0.414773 5.15866,0.536656 7.26024,0.02268 2.1016,-0.513983 5.12982,-1.504219 5.9032,-2.762442 0.77339,-1.258223 1.26793,-1.726963 0.40877,-3.947559 -0.85916,-2.220592 -5.2388,-2.621852 -5.2388,-2.621852 0,0 -3.93185,-0.193604 -6.78117,1.600763 -2.84932,1.794364 -3.32064,2.910358 -3.32064,2.910358 0,0 -0.68352,0.843064 -0.63062,1.896746 0.053,1.053673 0.74326,1.291692 0.74326,1.291692 1.15372,-0.108584 0.12639,0.246797 0.0854,0.327721 z"
         id="path10353"
         style="fill:#ffffff;stroke:none;stroke-width:0.0474606"
         sodipodi:nodetypes="ssssscscscs" />
      <path
         d="m 369.82414,91.340771 c -0.62381,0.259685 -0.30718,0.878611 0.35874,1.995081 0.66592,1.11647 3.56889,3.763344 5.49938,4.74009 1.93051,0.976739 4.8746,2.194538 6.28046,1.742008 1.40588,-0.452527 2.0864,-0.486828 2.87839,-2.732263 0.79198,-2.245429 -2.27333,-5.399177 -2.27333,-5.399177 0,0 -2.86029,-2.704739 -6.19161,-3.195424 -3.3313,-0.490694 -4.41522,0.05032 -4.41522,0.05032 0,0 -1.06756,0.195666 -1.71281,1.030353 -0.64518,0.834733 -0.27573,1.464545 -0.27573,1.464545 0.94689,0.66802 -0.0647,0.269614 -0.14829,0.304454 z"
         id="path10355"
         style="fill:#ffffff;stroke:none;stroke-width:0.0474606"
         sodipodi:nodetypes="ssssscscscs" />
      <path
         d="m 397.87915,106.12498 c -0.67455,0.0395 -0.57974,0.72817 -0.31924,2.00178 0.2605,1.27362 2.12824,4.72973 3.62864,6.28845 1.50043,1.55872 3.87825,3.67926 5.3547,3.71565 1.47647,0.0364 2.13023,0.22842 3.61839,-1.63024 1.48814,-1.85866 -0.36571,-5.84682 -0.36571,-5.84682 0,0 -1.80836,-3.49667 -4.79153,-5.05847 -2.98314,-1.56179 -4.18483,-1.4085 -4.18483,-1.4085 0,0 -1.07237,-0.16732 -1.95677,0.40789 -0.88436,0.57529 -0.74327,1.2917 -0.74327,1.2917 0.67364,0.9429 -0.14999,0.23319 -0.24039,0.23852 z"
         id="path10357"
         style="fill:#ffffff;stroke:none;stroke-width:0.0474606"
         sodipodi:nodetypes="ssssscscscs" />
      <path
         d="m 396.60902,128.07839 c -0.40643,-0.5398 -0.92737,-0.0795 -1.84361,0.84269 -0.91626,0.9222 -2.75978,4.39129 -3.22681,6.50381 -0.46702,2.11252 -0.91598,5.26675 -0.12868,6.51631 0.78731,1.24957 0.98945,1.90027 3.3612,2.11016 2.37173,0.20987 4.66597,-3.54228 4.66597,-3.54228 0,0 1.91017,-3.4421 1.55867,-6.79098 -0.3515,-3.34885 -1.14459,-4.26457 -1.14459,-4.26457 0,0 -0.45452,-0.98559 -1.42323,-1.40348 -0.96876,-0.41781 -1.48716,0.0964 -1.48716,0.0964 -0.41209,1.08306 -0.27723,0.004 -0.33173,-0.0681 z"
         id="path10359"
         style="fill:#ffffff;stroke:none;stroke-width:0.0474606"
         sodipodi:nodetypes="ssssscscscs" />
      <path
         d="m 417.58613,85.745411 c 0.67138,0.07632 0.53906,0.758781 0.20931,2.016244 -0.32974,1.257465 -2.38365,4.606293 -3.96703,6.080646 -1.58341,1.474349 -4.07361,3.461717 -5.54984,3.417323 -1.47625,-0.04438 -2.13953,0.111608 -3.52385,-1.82563 -1.38428,-1.937245 0.68484,-5.818079 0.68484,-5.818079 0,0 1.99684,-3.392572 5.06094,-4.788928 3.06406,-1.396359 4.25558,-1.177589 4.25558,-1.177589 0,0 1.07991,-0.108437 1.93154,0.514257 0.85158,0.622785 0.67153,1.330414 0.67153,1.330414 -0.72418,0.904655 0.13702,0.241041 0.22699,0.251299 z"
         id="path10361"
         style="fill:#ffffff;stroke:none;stroke-width:0.0474606"
         sodipodi:nodetypes="ssssscscscs" />
      <path
         d="m 427.60844,116.01211 c -0.40816,-0.5385 -0.92761,-0.0765 -1.8409,0.84861 -0.91328,0.92513 -2.74564,4.40014 -3.20589,6.51413 -0.46023,2.11402 -0.89906,5.26967 -0.10774,6.51669 0.79132,1.24703 0.99555,1.89708 3.36794,2.09938 2.3724,0.20225 4.65457,-3.55726 4.65457,-3.55726 0,0 1.8991,-3.44822 1.53684,-6.79595 -0.36226,-3.34769 -1.15829,-4.26087 -1.15829,-4.26087 0,0 -0.45767,-0.98413 -1.42772,-1.3989 -0.9701,-0.41469 -1.48685,0.10118 -1.48685,0.10118 -0.40861,1.08439 -0.27721,0.005 -0.33194,-0.067 z"
         id="path10363"
         style="fill:#ffffff;stroke:none;stroke-width:0.0474606"
         sodipodi:nodetypes="ssssscscscs" />
      <path
         d="m 437.46592,132.49291 c 0.23053,-0.63515 -0.4395,-0.82045 -1.71227,-1.08498 -1.2728,-0.2645 -5.18582,0.084 -7.21088,0.84548 -2.02508,0.76154 -4.91321,2.10671 -5.5306,3.44837 -0.61742,1.34167 -1.05235,1.86617 0.0661,3.96814 1.11848,2.10194 5.51467,1.9767 5.51467,1.9767 0,0 3.92678,-0.27785 6.54117,-2.4 2.61434,-2.12215 2.94885,-3.28647 2.94885,-3.28647 0,0 0.57784,-0.91872 0.39936,-1.95852 -0.17859,-1.0398 -0.89239,-1.19358 -0.89239,-1.19358 -1.13246,0.24577 -0.15473,-0.23006 -0.12399,-0.31512 z"
         id="path10365"
         style="fill:#ffffff;stroke:none;stroke-width:0.0474606"
         sodipodi:nodetypes="ssssscscscs" />
      <path
         d="m 386.26918,84.522823 c 0.43041,-0.386882 -8.5e-4,-0.797185 -0.85607,-1.510432 -0.85497,-0.71325 -3.95202,-2.028383 -5.78925,-2.269857 -1.83724,-0.24146 -4.56197,-0.390083 -5.56963,0.374571 -1.00768,0.764659 -1.54788,0.985498 -1.55067,3.024808 -0.003,2.039293 3.3693,3.717968 3.3693,3.717968 0,0 3.07897,1.374009 5.91029,0.825157 2.83129,-0.54884 3.55368,-1.293637 3.55368,-1.293637 0,0 0.80718,-0.461076 1.09174,-1.318704 0.28449,-0.857645 -0.1928,-1.261756 -0.1928,-1.261756 -0.95477,-0.271118 -0.0242,-0.236237 0.0334,-0.288115 z"
         id="path10367"
         style="fill:#ffffff;stroke:none;stroke-width:0.0406494"
         sodipodi:nodetypes="ssssscscscs" />
      <path
         d="m 417.10715,102.13986 c 0.43041,-0.38689 -8.5e-4,-0.79719 -0.85607,-1.51044 -0.85497,-0.713247 -3.95202,-2.028377 -5.78925,-2.269851 -1.83724,-0.24146 -4.56197,-0.390083 -5.56963,0.374571 -1.00768,0.764663 -1.54788,0.985503 -1.55067,3.02481 -0.003,2.03929 3.3693,3.71796 3.3693,3.71796 0,0 3.07897,1.37401 5.91029,0.82516 2.83129,-0.54884 3.55368,-1.29364 3.55368,-1.29364 0,0 0.80718,-0.46107 1.09174,-1.3187 0.28449,-0.85765 -0.1928,-1.26176 -0.1928,-1.26176 -0.95477,-0.27111 -0.0242,-0.23623 0.0334,-0.28811 z"
         id="path10369"
         style="fill:#ffffff;stroke:none;stroke-width:0.0406494"
         sodipodi:nodetypes="ssssscscscs" />
      <path
         d="m 339.67534,64.71078 c 0.60606,-1.00875 0.2226,-1.42161 -1.42377,-2.26342 -2.01585,-1.03073 -3.18856,-0.20376 -4.4728,0.69364 -1.91421,1.33762 -1.19752,4.05251 -0.22379,5.30489 1.38906,1.78657 3.25636,1.91206 5.43844,0.51999 1.54905,-0.98822 1.03813,-3.65486 1.03813,-3.65486 -0.38195,-0.18002 -0.43754,-0.46488 -0.35621,-0.60024 z"
         id="path10371"
         style="font-variation-settings:normal;opacity:1;vector-effect:none;fill:#ffffff;fill-opacity:1;stroke:none;stroke-width:0.0826585;stroke-linecap:butt;stroke-linejoin:miter;stroke-miterlimit:4;stroke-dasharray:none;stroke-dashoffset:0;stroke-opacity:1;-inkscape-stroke:none;stop-color:#000000;stop-opacity:1"
         sodipodi:nodetypes="ssssscs" />
      <path
         d="m 348.40778,45.076852 c -0.56265,-1.03359 -1.11287,-0.912157 -2.67276,0.08078 -1.90996,1.215778 -1.79112,2.645814 -1.66806,4.20769 0.18343,2.328042 2.8872,3.085605 4.46028,2.880597 2.24406,-0.292449 3.2983,-1.838781 3.20363,-4.425356 -0.0672,-1.836197 -2.62511,-2.746721 -2.62511,-2.746721 -0.34872,0.238097 -0.62248,0.141703 -0.69798,0.003 z"
         id="path10373"
         style="fill:#ffffff;stroke:none;stroke-width:0.0826585"
         sodipodi:nodetypes="ssssscs" />
      <path
         style="fill:#ffffff;stroke-width:0.160732"
         d="m 335.9655,74.432103 c -0.63978,-5.161394 -7.55221,-6.077742 -10.1755,0.607492 -1.95696,4.98715 -1.95787,7.76891 0,12.75734 2.62329,6.68385 9.53572,5.76963 10.1755,0.60749 0.56331,-4.54511 -2.52645,-3.47754 -2.56731,-6.98616 -0.0409,-3.508616 3.13117,-2.43714 2.56731,-6.986162 z"
         id="path10375"
         sodipodi:nodetypes="sssszs" />
      <path
         style="fill:#ffffff;stroke-width:0.160732"
         d="m 369.13026,48.769035 c 5.16139,-0.63978 6.07774,-7.55221 -0.6075,-10.1755 -4.98715,-1.95696 -7.76891,-1.95787 -12.75734,0 -6.68385,2.62329 -5.76963,9.53572 -0.60749,10.1755 4.54511,0.56331 3.47754,-2.52645 6.98616,-2.56731 3.50862,-0.0409 2.43714,3.13117 6.98617,2.56731 z"
         id="path10377"
         sodipodi:nodetypes="sssszs" />
      <path
         style="fill:#ffffff;stroke-width:0.160732"
         d="m 369.13026,27.602367 c 5.16139,-0.63978 6.07774,-7.55221 -0.6075,-10.1755 -4.98715,-1.95696 -7.76891,-1.95787 -12.75734,0 -6.68385,2.62329 -5.76963,9.53572 -0.60749,10.1755 4.54511,0.56331 3.47754,-2.52645 6.98616,-2.56731 3.50862,-0.0409 2.43714,3.13117 6.98617,2.56731 z"
         id="path10379"
         sodipodi:nodetypes="sssszs" />
      <path
         d="m 384.3284,60.883065 c 0.30489,0.603002 -0.33825,0.867123 -1.57028,1.2819 -1.23204,0.414773 -5.15866,0.536656 -7.26024,0.02268 -2.1016,-0.513983 -5.12982,-1.504219 -5.9032,-2.762442 -0.77339,-1.258223 -1.26793,-1.726963 -0.40877,-3.947559 0.85916,-2.220592 5.2388,-2.621852 5.2388,-2.621852 0,0 3.93185,-0.193604 6.78117,1.600763 2.84932,1.794364 3.32064,2.910358 3.32064,2.910358 0,0 0.68352,0.843064 0.63062,1.896746 -0.053,1.053673 -0.74326,1.291692 -0.74326,1.291692 -1.15372,-0.108584 -0.12639,0.246797 -0.0854,0.327721 z"
         id="path10381"
         style="fill:#ffffff;stroke:none;stroke-width:0.0474606"
         sodipodi:nodetypes="ssssscscscs" />
      <path
         d="m 384.58262,64.71078 c -0.60606,-1.00875 -0.2226,-1.42161 1.42377,-2.26342 2.01585,-1.03073 3.18856,-0.20376 4.4728,0.69364 1.91421,1.33762 1.19752,4.05251 0.22379,5.30489 -1.38906,1.78657 -3.25636,1.91206 -5.43844,0.51999 -1.54905,-0.98822 -1.03813,-3.65486 -1.03813,-3.65486 0.38195,-0.18002 0.43754,-0.46488 0.35621,-0.60024 z"
         id="path10383"
         style="font-variation-settings:normal;vector-effect:none;fill:#ffffff;fill-opacity:1;stroke:none;stroke-width:0.0826585;stroke-linecap:butt;stroke-linejoin:miter;stroke-miterlimit:4;stroke-dasharray:none;stroke-dashoffset:0;stroke-opacity:1;-inkscape-stroke:none;stop-color:#000000"
         sodipodi:nodetypes="ssssscs" />
      <path
         d="m 383.75406,101.59813 c -0.60606,-1.00875 -0.2226,-1.42161 1.42377,-2.263414 2.01585,-1.030729 3.18856,-0.20376 4.4728,0.693634 1.91421,1.33762 1.19752,4.05251 0.22379,5.30489 -1.38906,1.78657 -3.25636,1.91206 -5.43844,0.51999 -1.54905,-0.98822 -1.03813,-3.65486 -1.03813,-3.65486 0.38195,-0.18002 0.43754,-0.46488 0.35621,-0.60024 z"
         id="path10385"
         style="font-variation-settings:normal;vector-effect:none;fill:#ffffff;fill-opacity:1;stroke:none;stroke-width:0.0826585;stroke-linecap:butt;stroke-linejoin:miter;stroke-miterlimit:4;stroke-dasharray:none;stroke-dashoffset:0;stroke-opacity:1;-inkscape-stroke:none;stop-color:#000000"
         sodipodi:nodetypes="ssssscs" />
      <path
         d="m 405.27365,86.566084 c 0.81263,0.851183 0.52911,1.338125 -0.89243,2.520664 -1.74056,1.447933 -3.06615,0.898436 -4.516,0.304703 -2.16106,-0.885004 -2.05755,-3.69099 -1.38235,-5.126508 0.9632,-2.047822 2.75746,-2.579981 5.19181,-1.700634 1.72814,0.624241 1.81479,3.338002 1.81479,3.338002 -0.33314,0.259442 -0.32487,0.549557 -0.21582,0.663773 z"
         id="path10387"
         style="font-variation-settings:normal;vector-effect:none;fill:#ffffff;fill-opacity:1;stroke:none;stroke-width:0.0826585;stroke-linecap:butt;stroke-linejoin:miter;stroke-miterlimit:4;stroke-dasharray:none;stroke-dashoffset:0;stroke-opacity:1;-inkscape-stroke:none;stop-color:#000000"
         sodipodi:nodetypes="ssssscs" />
      <path
         d="m 419.71782,99.617233 c -0.32042,1.132347 -0.88388,1.135467 -2.62458,0.511637 -2.13134,-0.763824 -2.33134,-2.184785 -2.55635,-3.735253 -0.33538,-2.311047 2.13424,-3.647179 3.71375,-3.794737 2.25322,-0.210498 3.62301,1.064747 4.10207,3.608329 0.34009,1.805681 -1.9535,3.258769 -1.9535,3.258769 -0.39269,-0.15518 -0.6384,-6.93e-4 -0.68139,0.151255 z"
         id="path10389"
         style="font-variation-settings:normal;vector-effect:none;fill:#ffffff;fill-opacity:1;stroke:none;stroke-width:0.0826585;stroke-linecap:butt;stroke-linejoin:miter;stroke-miterlimit:4;stroke-dasharray:none;stroke-dashoffset:0;stroke-opacity:1;-inkscape-stroke:none;stop-color:#000000"
         sodipodi:nodetypes="ssssscs" />
      <path
         d="m 418.4751,130.26597 c -0.40607,-1.43505 -1.12016,-1.439 -3.32619,-0.64841 -2.70109,0.96802 -2.95455,2.76884 -3.23971,4.73379 -0.42504,2.92884 2.70477,4.62215 4.70651,4.80915 2.85556,0.26677 4.59152,-1.34938 5.19864,-4.57291 0.43101,-2.28839 -2.47571,-4.12992 -2.47571,-4.12992 -0.49766,0.19666 -0.80906,8.7e-4 -0.86354,-0.1917 z"
         id="path10391"
         style="font-variation-settings:normal;vector-effect:none;fill:#ffffff;fill-opacity:1;stroke:none;stroke-width:0.104755;stroke-linecap:butt;stroke-linejoin:miter;stroke-miterlimit:4;stroke-dasharray:none;stroke-dashoffset:0;stroke-opacity:1;-inkscape-stroke:none;stop-color:#000000"
         sodipodi:nodetypes="ssssscs" />
      <path
         d="m 436.11091,105.10355 c -0.32042,1.13234 -0.88388,1.13546 -2.62458,0.51163 -2.13134,-0.76382 -2.33134,-2.18478 -2.55635,-3.73525 -0.33538,-2.311047 2.13424,-3.647168 3.71375,-3.794728 2.25322,-0.210493 3.62301,1.064744 4.10207,3.608318 0.34009,1.80568 -1.9535,3.25877 -1.9535,3.25877 -0.39269,-0.15518 -0.6384,-6.9e-4 -0.68139,0.15126 z"
         id="path10393"
         style="font-variation-settings:normal;vector-effect:none;fill:#ffffff;fill-opacity:1;stroke:none;stroke-width:0.0826585;stroke-linecap:butt;stroke-linejoin:miter;stroke-miterlimit:4;stroke-dasharray:none;stroke-dashoffset:0;stroke-opacity:1;-inkscape-stroke:none;stop-color:#000000"
         sodipodi:nodetypes="ssssscs" />
      <path
         d="m 422.42724,141.3639 c -0.32042,-1.13234 -0.88388,-1.13546 -2.62458,-0.51163 -2.13134,0.76382 -2.33134,2.18478 -2.55635,3.73525 -0.33538,2.31105 2.13424,3.64717 3.71375,3.79473 2.25322,0.21049 3.62301,-1.06475 4.10207,-3.60832 0.34009,-1.80568 -1.9535,-3.25877 -1.9535,-3.25877 -0.39269,0.15518 -0.6384,6.9e-4 -0.68139,-0.15126 z"
         id="path10395"
         style="font-variation-settings:normal;vector-effect:none;fill:#ffffff;fill-opacity:1;stroke:none;stroke-width:0.0826585;stroke-linecap:butt;stroke-linejoin:miter;stroke-miterlimit:4;stroke-dasharray:none;stroke-dashoffset:0;stroke-opacity:1;-inkscape-stroke:none;stop-color:#000000"
         sodipodi:nodetypes="ssssscs" />
      <path
         d="m 401.0502,150.08696 c 1.15046,0.24763 1.41729,-0.24866 1.68201,-2.07872 0.32413,-2.24075 -0.83738,-3.08337 -2.10157,-4.00879 -1.88435,-1.37937 -4.22207,0.17605 -5.09268,1.5022 -1.24194,1.8918 -0.75739,3.69949 1.26503,5.31476 1.43571,1.14668 3.79425,-0.19842 3.79425,-0.19842 0.047,-0.41962 0.29859,-0.56427 0.45296,-0.53103 z"
         id="path10397"
         style="font-variation-settings:normal;vector-effect:none;fill:#ffffff;fill-opacity:1;stroke:none;stroke-width:0.0826585;stroke-linecap:butt;stroke-linejoin:miter;stroke-miterlimit:4;stroke-dasharray:none;stroke-dashoffset:0;stroke-opacity:1;-inkscape-stroke:none;stop-color:#000000"
         sodipodi:nodetypes="ssssscs" />
      <path
         d="m 375.85018,45.076852 c 0.56265,-1.03359 1.11287,-0.912157 2.67276,0.08078 1.90996,1.215778 1.79112,2.645814 1.66806,4.20769 -0.18343,2.328042 -2.8872,3.085605 -4.46028,2.880597 -2.24406,-0.292449 -3.2983,-1.838781 -3.20363,-4.425356 0.0672,-1.836197 2.62511,-2.746721 2.62511,-2.746721 0.34872,0.238097 0.62248,0.141703 0.69798,0.003 z"
         id="path10399"
         style="fill:#ffffff;stroke:none;stroke-width:0.0826585"
         sodipodi:nodetypes="ssssscs" />
      <path
         style="fill:#ffffff;stroke-width:0.264583"
         d="m 366.86272,77.849352 c -4.47354,-4.322029 -10.83899,-4.26633 -13.09282,-0.658062 -2.89228,4.630404 -0.80744,8.431237 0.53897,9.272239 1.3464,0.841003 2.22387,1.389094 4.34956,1.22067 1.31536,-0.104215 1.60525,2.9e-4 2.35887,0.471019 0.80919,0.505445 0.32759,1.207018 2.34612,2.467849 2.01854,1.26083 5.52573,0.905117 7.68966,-2.636223 1.97773,-3.236654 0.85629,-8.530765 -4.19036,-10.137492 z"
         id="path10401"
         sodipodi:nodetypes="cszsszsc" />
      <path
         style="fill:#ffffff;stroke-width:0.264583"
         d="m 400.13829,91.309052 c -3.16055,-5.357555 -9.31083,-6.999551 -12.44442,-4.122059 -4.02125,3.692618 -3.02424,7.911488 -1.95052,9.080769 1.07372,1.169279 1.77347,1.931313 3.86722,2.335234 1.29559,0.249948 1.54717,0.4279 2.14816,1.082375 0.64531,0.702739 -0.006,1.250679 1.60394,3.003669 1.60973,1.75299 5.08495,2.34441 8.11406,-0.49253 2.76847,-2.592868 3.09784,-7.994419 -1.33844,-10.887458 z"
         id="path10403"
         sodipodi:nodetypes="cszsszsc" />
      <path
         style="fill:#ffffff;stroke-width:0.225196"
         d="m 395.44198,74.400596 c -3.62666,-3.857127 -9.04055,-4.06978 -11.10405,-1.094263 -2.64802,3.818419 -1.03084,7.134874 0.0795,7.904846 1.11029,0.769983 1.83389,1.271788 3.64793,1.215432 1.12253,-0.03493 1.36471,0.06579 1.98617,0.496788 0.66728,0.462759 0.22921,1.039538 1.89376,2.193898 1.66456,1.154349 4.66075,0.995197 6.64508,-1.927103 1.81359,-2.670873 1.07644,-7.21749 -3.14836,-8.789598 z"
         id="path10405"
         sodipodi:nodetypes="cszsszsc" />
      <path
         style="fill:#ffffff;stroke-width:0.210244"
         d="m 410.77552,126.47992 c 0.17656,-4.93966 -3.23869,-8.67099 -6.56816,-8.08535 -4.27264,0.75154 -5.4105,4.00294 -5.19194,5.24533 0.21851,1.24238 0.36094,2.05204 1.58995,3.21849 0.76052,0.72177 0.8528,0.94859 0.97512,1.64397 0.13132,0.74666 -0.53908,0.83492 -0.21147,2.69749 0.32762,1.86257 2.40136,3.74573 5.64353,3.14253 2.9632,-0.55131 5.49525,-4.02696 3.76299,-7.86244 z"
         id="path10407"
         sodipodi:nodetypes="cszsszsc" />
      <path
         style="fill:#ffffff;stroke-width:0.210244"
         d="m 404.40342,145.99381 c 3.06908,3.87455 8.08861,4.49995 10.24319,1.89494 2.76492,-3.34298 1.52245,-6.55586 0.5506,-7.3598 -0.97204,-0.80399 -1.60554,-1.32793 -3.29752,-1.41878 -1.04699,-0.0562 -1.26433,-0.16899 -1.80842,-0.61896 -0.58419,-0.4832 -0.13111,-0.98515 -1.58841,-2.19046 -1.45731,-1.20532 -4.2571,-1.2939 -6.33383,1.26787 -1.89805,2.34136 -1.57139,6.6291 2.2346,8.42525 z"
         id="path10409"
         sodipodi:nodetypes="cszsszsc" />
      <path
         style="fill:#ffffff;stroke-width:0.210244"
         d="m 431.18753,106.18054 c -0.67262,-4.89683 -4.67683,-7.987632 -7.85667,-6.840041 -4.08062,1.472681 -4.64441,4.870971 -4.21616,6.057531 0.4282,1.18654 0.70729,1.95982 2.11803,2.89838 0.87296,0.58075 1.00275,0.7884 1.24244,1.45252 0.25734,0.71311 -0.38802,0.91496 0.25395,2.69383 0.64199,1.77886 3.0078,3.27875 6.09861,2.12883 2.82488,-1.051 4.72379,-4.90918 2.35983,-8.39103 z"
         id="path10411"
         sodipodi:nodetypes="cszsszsc" />
      <path
         style="fill:#ffffff;stroke-width:0.160732"
         d="m 411.15879,124.40596 c 0.63978,5.16139 7.55221,6.07774 10.1755,-0.60749 1.95696,-4.98715 1.95787,-7.76891 0,-12.75734 -2.62329,-6.68385 -9.53572,-5.76963 -10.1755,-0.60749 -0.56331,4.54511 2.52645,3.47754 2.56731,6.98616 0.0409,3.50861 -3.13117,2.43714 -2.56731,6.98616 z"
         id="path10413"
         sodipodi:nodetypes="sssszs" />
      <path
         style="fill:#ffffff;stroke-width:0.160732"
         d="m 432.85464,124.40596 c 0.63978,5.16139 7.55221,6.07774 10.1755,-0.60749 1.95696,-4.98715 1.95787,-7.76891 0,-12.75734 -2.62329,-6.68385 -9.53572,-5.76963 -10.1755,-0.60749 -0.56331,4.54511 2.52645,3.47754 2.56731,6.98616 0.0409,3.50861 -3.13117,2.43714 -2.56731,6.98616 z"
         id="path10415"
         sodipodi:nodetypes="sssszs" />
    </g>
  </g>
  <script
     id="mesh_polyfill"
     type="text/javascript">
!function(){const t=&quot;http://www.w3.org/2000/svg&quot;,e=&quot;http://www.w3.org/1999/xlink&quot;,s=&quot;http://www.w3.org/1999/xhtml&quot;,r=2;if(document.createElementNS(t,&quot;meshgradient&quot;).x)return;const n=(t,e,s,r)=&gt;{let n=new x(.5*(e.x+s.x),.5*(e.y+s.y)),o=new x(.5*(t.x+e.x),.5*(t.y+e.y)),i=new x(.5*(s.x+r.x),.5*(s.y+r.y)),a=new x(.5*(n.x+o.x),.5*(n.y+o.y)),h=new x(.5*(n.x+i.x),.5*(n.y+i.y)),l=new x(.5*(a.x+h.x),.5*(a.y+h.y));return[[t,o,a,l],[l,h,i,r]]},o=t=&gt;{let e=t[0].distSquared(t[1]),s=t[2].distSquared(t[3]),r=.25*t[0].distSquared(t[2]),n=.25*t[1].distSquared(t[3]),o=e&gt;s?e:s,i=r&gt;n?r:n;return 18*(o&gt;i?o:i)},i=(t,e)=&gt;Math.sqrt(t.distSquared(e)),a=(t,e)=&gt;t.scale(2/3).add(e.scale(1/3)),h=t=&gt;{let e,s,r,n,o,i,a,h=new g;return t.match(/(\w+\(\s*[^)]+\))+/g).forEach(t=&gt;{let l=t.match(/[\w.-]+/g),d=l.shift();switch(d){case&quot;translate&quot;:2===l.length?e=new g(1,0,0,1,l[0],l[1]):(console.error(&quot;mesh.js: translate does not have 2 arguments!&quot;),e=new g(1,0,0,1,0,0)),h=h.append(e);break;case&quot;scale&quot;:1===l.length?s=new g(l[0],0,0,l[0],0,0):2===l.length?s=new g(l[0],0,0,l[1],0,0):(console.error(&quot;mesh.js: scale does not have 1 or 2 arguments!&quot;),s=new g(1,0,0,1,0,0)),h=h.append(s);break;case&quot;rotate&quot;:if(3===l.length&amp;&amp;(e=new g(1,0,0,1,l[1],l[2]),h=h.append(e)),l[0]){r=l[0]*Math.PI/180;let t=Math.cos(r),e=Math.sin(r);Math.abs(t)&lt;1e-16&amp;&amp;(t=0),Math.abs(e)&lt;1e-16&amp;&amp;(e=0),a=new g(t,e,-e,t,0,0),h=h.append(a)}else console.error(&quot;math.js: No argument to rotate transform!&quot;);3===l.length&amp;&amp;(e=new g(1,0,0,1,-l[1],-l[2]),h=h.append(e));break;case&quot;skewX&quot;:l[0]?(r=l[0]*Math.PI/180,n=Math.tan(r),o=new g(1,0,n,1,0,0),h=h.append(o)):console.error(&quot;math.js: No argument to skewX transform!&quot;);break;case&quot;skewY&quot;:l[0]?(r=l[0]*Math.PI/180,n=Math.tan(r),i=new g(1,n,0,1,0,0),h=h.append(i)):console.error(&quot;math.js: No argument to skewY transform!&quot;);break;case&quot;matrix&quot;:6===l.length?h=h.append(new g(...l)):console.error(&quot;math.js: Incorrect number of arguments for matrix!&quot;);break;default:console.error(&quot;mesh.js: Unhandled transform type: &quot;+d)}}),h},l=t=&gt;{let e=[],s=t.split(/[ ,]+/);for(let t=0,r=s.length-1;t&lt;r;t+=2)e.push(new x(parseFloat(s[t]),parseFloat(s[t+1])));return e},d=(t,e)=&gt;{for(let s in e)t.setAttribute(s,e[s])},c=(t,e,s,r,n)=&gt;{let o,i,a=[0,0,0,0];for(let h=0;h&lt;3;++h)e[h]&lt;t[h]&amp;&amp;e[h]&lt;s[h]||t[h]&lt;e[h]&amp;&amp;s[h]&lt;e[h]?a[h]=0:(a[h]=.5*((e[h]-t[h])/r+(s[h]-e[h])/n),o=Math.abs(3*(e[h]-t[h])/r),i=Math.abs(3*(s[h]-e[h])/n),a[h]&gt;o?a[h]=o:a[h]&gt;i&amp;&amp;(a[h]=i));return a},u=[[1,0,0,0,0,0,0,0,0,0,0,0,0,0,0,0],[0,0,0,0,1,0,0,0,0,0,0,0,0,0,0,0],[-3,3,0,0,-2,-1,0,0,0,0,0,0,0,0,0,0],[2,-2,0,0,1,1,0,0,0,0,0,0,0,0,0,0],[0,0,0,0,0,0,0,0,1,0,0,0,0,0,0,0],[0,0,0,0,0,0,0,0,0,0,0,0,1,0,0,0],[0,0,0,0,0,0,0,0,-3,3,0,0,-2,-1,0,0],[0,0,0,0,0,0,0,0,2,-2,0,0,1,1,0,0],[-3,0,3,0,0,0,0,0,-2,0,-1,0,0,0,0,0],[0,0,0,0,-3,0,3,0,0,0,0,0,-2,0,-1,0],[9,-9,-9,9,6,3,-6,-3,6,-6,3,-3,4,2,2,1],[-6,6,6,-6,-3,-3,3,3,-4,4,-2,2,-2,-2,-1,-1],[2,0,-2,0,0,0,0,0,1,0,1,0,0,0,0,0],[0,0,0,0,2,0,-2,0,0,0,0,0,1,0,1,0],[-6,6,6,-6,-4,-2,4,2,-3,3,-3,3,-2,-1,-2,-1],[4,-4,-4,4,2,2,-2,-2,2,-2,2,-2,1,1,1,1]],f=t=&gt;{let e=[];for(let s=0;s&lt;16;++s){e[s]=0;for(let r=0;r&lt;16;++r)e[s]+=u[s][r]*t[r]}return e},p=(t,e,s)=&gt;{const r=e*e,n=s*s,o=e*e*e,i=s*s*s;return t[0]+t[1]*e+t[2]*r+t[3]*o+t[4]*s+t[5]*s*e+t[6]*s*r+t[7]*s*o+t[8]*n+t[9]*n*e+t[10]*n*r+t[11]*n*o+t[12]*i+t[13]*i*e+t[14]*i*r+t[15]*i*o},y=t=&gt;{let e=[],s=[],r=[];for(let s=0;s&lt;4;++s)e[s]=[],e[s][0]=n(t[0][s],t[1][s],t[2][s],t[3][s]),e[s][1]=[],e[s][1].push(...n(...e[s][0][0])),e[s][1].push(...n(...e[s][0][1])),e[s][2]=[],e[s][2].push(...n(...e[s][1][0])),e[s][2].push(...n(...e[s][1][1])),e[s][2].push(...n(...e[s][1][2])),e[s][2].push(...n(...e[s][1][3]));for(let t=0;t&lt;8;++t){s[t]=[];for(let r=0;r&lt;4;++r)s[t][r]=[],s[t][r][0]=n(e[0][2][t][r],e[1][2][t][r],e[2][2][t][r],e[3][2][t][r]),s[t][r][1]=[],s[t][r][1].push(...n(...s[t][r][0][0])),s[t][r][1].push(...n(...s[t][r][0][1])),s[t][r][2]=[],s[t][r][2].push(...n(...s[t][r][1][0])),s[t][r][2].push(...n(...s[t][r][1][1])),s[t][r][2].push(...n(...s[t][r][1][2])),s[t][r][2].push(...n(...s[t][r][1][3]))}for(let t=0;t&lt;8;++t){r[t]=[];for(let e=0;e&lt;8;++e)r[t][e]=[],r[t][e][0]=s[t][0][2][e],r[t][e][1]=s[t][1][2][e],r[t][e][2]=s[t][2][2][e],r[t][e][3]=s[t][3][2][e]}return r};class x{constructor(t,e){this.x=t||0,this.y=e||0}toString(){return`(x=${this.x}, y=${this.y})`}clone(){return new x(this.x,this.y)}add(t){return new x(this.x+t.x,this.y+t.y)}scale(t){return void 0===t.x?new x(this.x*t,this.y*t):new x(this.x*t.x,this.y*t.y)}distSquared(t){let e=this.x-t.x,s=this.y-t.y;return e*e+s*s}transform(t){let e=this.x*t.a+this.y*t.c+t.e,s=this.x*t.b+this.y*t.d+t.f;return new x(e,s)}}class g{constructor(t,e,s,r,n,o){void 0===t?(this.a=1,this.b=0,this.c=0,this.d=1,this.e=0,this.f=0):(this.a=t,this.b=e,this.c=s,this.d=r,this.e=n,this.f=o)}toString(){return`affine: ${this.a} ${this.c} ${this.e} \n       ${this.b} ${this.d} ${this.f}`}append(t){t instanceof g||console.error(&quot;mesh.js: argument to Affine.append is not affine!&quot;);let e=this.a*t.a+this.c*t.b,s=this.b*t.a+this.d*t.b,r=this.a*t.c+this.c*t.d,n=this.b*t.c+this.d*t.d,o=this.a*t.e+this.c*t.f+this.e,i=this.b*t.e+this.d*t.f+this.f;return new g(e,s,r,n,o,i)}}class w{constructor(t,e){this.nodes=t,this.colors=e}paintCurve(t,e){if(o(this.nodes)&gt;r){const s=n(...this.nodes);let r=[[],[]],o=[[],[]];for(let t=0;t&lt;4;++t)r[0][t]=this.colors[0][t],r[1][t]=(this.colors[0][t]+this.colors[1][t])/2,o[0][t]=r[1][t],o[1][t]=this.colors[1][t];let i=new w(s[0],r),a=new w(s[1],o);i.paintCurve(t,e),a.paintCurve(t,e)}else{let s=Math.round(this.nodes[0].x);if(s&gt;=0&amp;&amp;s&lt;e){let r=4*(~~this.nodes[0].y*e+s);t[r]=Math.round(this.colors[0][0]),t[r+1]=Math.round(this.colors[0][1]),t[r+2]=Math.round(this.colors[0][2]),t[r+3]=Math.round(this.colors[0][3])}}}}class m{constructor(t,e){this.nodes=t,this.colors=e}split(){let t=[[],[],[],[]],e=[[],[],[],[]],s=[[[],[]],[[],[]]],r=[[[],[]],[[],[]]];for(let s=0;s&lt;4;++s){const r=n(this.nodes[0][s],this.nodes[1][s],this.nodes[2][s],this.nodes[3][s]);t[0][s]=r[0][0],t[1][s]=r[0][1],t[2][s]=r[0][2],t[3][s]=r[0][3],e[0][s]=r[1][0],e[1][s]=r[1][1],e[2][s]=r[1][2],e[3][s]=r[1][3]}for(let t=0;t&lt;4;++t)s[0][0][t]=this.colors[0][0][t],s[0][1][t]=this.colors[0][1][t],s[1][0][t]=(this.colors[0][0][t]+this.colors[1][0][t])/2,s[1][1][t]=(this.colors[0][1][t]+this.colors[1][1][t])/2,r[0][0][t]=s[1][0][t],r[0][1][t]=s[1][1][t],r[1][0][t]=this.colors[1][0][t],r[1][1][t]=this.colors[1][1][t];return[new m(t,s),new m(e,r)]}paint(t,e){let s,n=!1;for(let t=0;t&lt;4;++t)if((s=o([this.nodes[0][t],this.nodes[1][t],this.nodes[2][t],this.nodes[3][t]]))&gt;r){n=!0;break}if(n){let s=this.split();s[0].paint(t,e),s[1].paint(t,e)}else{new w([...this.nodes[0]],[...this.colors[0]]).paintCurve(t,e)}}}class b{constructor(t){this.readMesh(t),this.type=t.getAttribute(&quot;type&quot;)||&quot;bilinear&quot;}readMesh(t){let e=[[]],s=[[]],r=Number(t.getAttribute(&quot;x&quot;)),n=Number(t.getAttribute(&quot;y&quot;));e[0][0]=new x(r,n);let o=t.children;for(let t=0,r=o.length;t&lt;r;++t){e[3*t+1]=[],e[3*t+2]=[],e[3*t+3]=[],s[t+1]=[];let r=o[t].children;for(let n=0,o=r.length;n&lt;o;++n){let o=r[n].children;for(let r=0,i=o.length;r&lt;i;++r){let i=r;0!==t&amp;&amp;++i;let h,d=o[r].getAttribute(&quot;path&quot;),c=&quot;l&quot;;null!=d&amp;&amp;(c=(h=d.match(/\s*([lLcC])\s*(.*)/))[1]);let u=l(h[2]);switch(c){case&quot;l&quot;:0===i?(e[3*t][3*n+3]=u[0].add(e[3*t][3*n]),e[3*t][3*n+1]=a(e[3*t][3*n],e[3*t][3*n+3]),e[3*t][3*n+2]=a(e[3*t][3*n+3],e[3*t][3*n])):1===i?(e[3*t+3][3*n+3]=u[0].add(e[3*t][3*n+3]),e[3*t+1][3*n+3]=a(e[3*t][3*n+3],e[3*t+3][3*n+3]),e[3*t+2][3*n+3]=a(e[3*t+3][3*n+3],e[3*t][3*n+3])):2===i?(0===n&amp;&amp;(e[3*t+3][3*n+0]=u[0].add(e[3*t+3][3*n+3])),e[3*t+3][3*n+1]=a(e[3*t+3][3*n],e[3*t+3][3*n+3]),e[3*t+3][3*n+2]=a(e[3*t+3][3*n+3],e[3*t+3][3*n])):(e[3*t+1][3*n]=a(e[3*t][3*n],e[3*t+3][3*n]),e[3*t+2][3*n]=a(e[3*t+3][3*n],e[3*t][3*n]));break;case&quot;L&quot;:0===i?(e[3*t][3*n+3]=u[0],e[3*t][3*n+1]=a(e[3*t][3*n],e[3*t][3*n+3]),e[3*t][3*n+2]=a(e[3*t][3*n+3],e[3*t][3*n])):1===i?(e[3*t+3][3*n+3]=u[0],e[3*t+1][3*n+3]=a(e[3*t][3*n+3],e[3*t+3][3*n+3]),e[3*t+2][3*n+3]=a(e[3*t+3][3*n+3],e[3*t][3*n+3])):2===i?(0===n&amp;&amp;(e[3*t+3][3*n+0]=u[0]),e[3*t+3][3*n+1]=a(e[3*t+3][3*n],e[3*t+3][3*n+3]),e[3*t+3][3*n+2]=a(e[3*t+3][3*n+3],e[3*t+3][3*n])):(e[3*t+1][3*n]=a(e[3*t][3*n],e[3*t+3][3*n]),e[3*t+2][3*n]=a(e[3*t+3][3*n],e[3*t][3*n]));break;case&quot;c&quot;:0===i?(e[3*t][3*n+1]=u[0].add(e[3*t][3*n]),e[3*t][3*n+2]=u[1].add(e[3*t][3*n]),e[3*t][3*n+3]=u[2].add(e[3*t][3*n])):1===i?(e[3*t+1][3*n+3]=u[0].add(e[3*t][3*n+3]),e[3*t+2][3*n+3]=u[1].add(e[3*t][3*n+3]),e[3*t+3][3*n+3]=u[2].add(e[3*t][3*n+3])):2===i?(e[3*t+3][3*n+2]=u[0].add(e[3*t+3][3*n+3]),e[3*t+3][3*n+1]=u[1].add(e[3*t+3][3*n+3]),0===n&amp;&amp;(e[3*t+3][3*n+0]=u[2].add(e[3*t+3][3*n+3]))):(e[3*t+2][3*n]=u[0].add(e[3*t+3][3*n]),e[3*t+1][3*n]=u[1].add(e[3*t+3][3*n]));break;case&quot;C&quot;:0===i?(e[3*t][3*n+1]=u[0],e[3*t][3*n+2]=u[1],e[3*t][3*n+3]=u[2]):1===i?(e[3*t+1][3*n+3]=u[0],e[3*t+2][3*n+3]=u[1],e[3*t+3][3*n+3]=u[2]):2===i?(e[3*t+3][3*n+2]=u[0],e[3*t+3][3*n+1]=u[1],0===n&amp;&amp;(e[3*t+3][3*n+0]=u[2])):(e[3*t+2][3*n]=u[0],e[3*t+1][3*n]=u[1]);break;default:console.error(&quot;mesh.js: &quot;+c+&quot; invalid path type.&quot;)}if(0===t&amp;&amp;0===n||r&gt;0){let e=window.getComputedStyle(o[r]).stopColor.match(/^rgb\s*\(\s*(\d+)\s*,\s*(\d+)\s*,\s*(\d+)\s*\)$/i),a=window.getComputedStyle(o[r]).stopOpacity,h=255;a&amp;&amp;(h=Math.floor(255*a)),e&amp;&amp;(0===i?(s[t][n]=[],s[t][n][0]=Math.floor(e[1]),s[t][n][1]=Math.floor(e[2]),s[t][n][2]=Math.floor(e[3]),s[t][n][3]=h):1===i?(s[t][n+1]=[],s[t][n+1][0]=Math.floor(e[1]),s[t][n+1][1]=Math.floor(e[2]),s[t][n+1][2]=Math.floor(e[3]),s[t][n+1][3]=h):2===i?(s[t+1][n+1]=[],s[t+1][n+1][0]=Math.floor(e[1]),s[t+1][n+1][1]=Math.floor(e[2]),s[t+1][n+1][2]=Math.floor(e[3]),s[t+1][n+1][3]=h):3===i&amp;&amp;(s[t+1][n]=[],s[t+1][n][0]=Math.floor(e[1]),s[t+1][n][1]=Math.floor(e[2]),s[t+1][n][2]=Math.floor(e[3]),s[t+1][n][3]=h))}}e[3*t+1][3*n+1]=new x,e[3*t+1][3*n+2]=new x,e[3*t+2][3*n+1]=new x,e[3*t+2][3*n+2]=new x,e[3*t+1][3*n+1].x=(-4*e[3*t][3*n].x+6*(e[3*t][3*n+1].x+e[3*t+1][3*n].x)+-2*(e[3*t][3*n+3].x+e[3*t+3][3*n].x)+3*(e[3*t+3][3*n+1].x+e[3*t+1][3*n+3].x)+-1*e[3*t+3][3*n+3].x)/9,e[3*t+1][3*n+2].x=(-4*e[3*t][3*n+3].x+6*(e[3*t][3*n+2].x+e[3*t+1][3*n+3].x)+-2*(e[3*t][3*n].x+e[3*t+3][3*n+3].x)+3*(e[3*t+3][3*n+2].x+e[3*t+1][3*n].x)+-1*e[3*t+3][3*n].x)/9,e[3*t+2][3*n+1].x=(-4*e[3*t+3][3*n].x+6*(e[3*t+3][3*n+1].x+e[3*t+2][3*n].x)+-2*(e[3*t+3][3*n+3].x+e[3*t][3*n].x)+3*(e[3*t][3*n+1].x+e[3*t+2][3*n+3].x)+-1*e[3*t][3*n+3].x)/9,e[3*t+2][3*n+2].x=(-4*e[3*t+3][3*n+3].x+6*(e[3*t+3][3*n+2].x+e[3*t+2][3*n+3].x)+-2*(e[3*t+3][3*n].x+e[3*t][3*n+3].x)+3*(e[3*t][3*n+2].x+e[3*t+2][3*n].x)+-1*e[3*t][3*n].x)/9,e[3*t+1][3*n+1].y=(-4*e[3*t][3*n].y+6*(e[3*t][3*n+1].y+e[3*t+1][3*n].y)+-2*(e[3*t][3*n+3].y+e[3*t+3][3*n].y)+3*(e[3*t+3][3*n+1].y+e[3*t+1][3*n+3].y)+-1*e[3*t+3][3*n+3].y)/9,e[3*t+1][3*n+2].y=(-4*e[3*t][3*n+3].y+6*(e[3*t][3*n+2].y+e[3*t+1][3*n+3].y)+-2*(e[3*t][3*n].y+e[3*t+3][3*n+3].y)+3*(e[3*t+3][3*n+2].y+e[3*t+1][3*n].y)+-1*e[3*t+3][3*n].y)/9,e[3*t+2][3*n+1].y=(-4*e[3*t+3][3*n].y+6*(e[3*t+3][3*n+1].y+e[3*t+2][3*n].y)+-2*(e[3*t+3][3*n+3].y+e[3*t][3*n].y)+3*(e[3*t][3*n+1].y+e[3*t+2][3*n+3].y)+-1*e[3*t][3*n+3].y)/9,e[3*t+2][3*n+2].y=(-4*e[3*t+3][3*n+3].y+6*(e[3*t+3][3*n+2].y+e[3*t+2][3*n+3].y)+-2*(e[3*t+3][3*n].y+e[3*t][3*n+3].y)+3*(e[3*t][3*n+2].y+e[3*t+2][3*n].y)+-1*e[3*t][3*n].y)/9}}this.nodes=e,this.colors=s}paintMesh(t,e){let s=(this.nodes.length-1)/3,r=(this.nodes[0].length-1)/3;if(&quot;bilinear&quot;===this.type||s&lt;2||r&lt;2){let n;for(let o=0;o&lt;s;++o)for(let s=0;s&lt;r;++s){let r=[];for(let t=3*o,e=3*o+4;t&lt;e;++t)r.push(this.nodes[t].slice(3*s,3*s+4));let i=[];i.push(this.colors[o].slice(s,s+2)),i.push(this.colors[o+1].slice(s,s+2)),(n=new m(r,i)).paint(t,e)}}else{let n,o,a,h,l,d,u;const x=s,g=r;s++,r++;let w=new Array(s);for(let t=0;t&lt;s;++t){w[t]=new Array(r);for(let e=0;e&lt;r;++e)w[t][e]=[],w[t][e][0]=this.nodes[3*t][3*e],w[t][e][1]=this.colors[t][e]}for(let t=0;t&lt;s;++t)for(let e=0;e&lt;r;++e)0!==t&amp;&amp;t!==x&amp;&amp;(n=i(w[t-1][e][0],w[t][e][0]),o=i(w[t+1][e][0],w[t][e][0]),w[t][e][2]=c(w[t-1][e][1],w[t][e][1],w[t+1][e][1],n,o)),0!==e&amp;&amp;e!==g&amp;&amp;(n=i(w[t][e-1][0],w[t][e][0]),o=i(w[t][e+1][0],w[t][e][0]),w[t][e][3]=c(w[t][e-1][1],w[t][e][1],w[t][e+1][1],n,o));for(let t=0;t&lt;r;++t){w[0][t][2]=[],w[x][t][2]=[];for(let e=0;e&lt;4;++e)n=i(w[1][t][0],w[0][t][0]),o=i(w[x][t][0],w[x-1][t][0]),w[0][t][2][e]=n&gt;0?2*(w[1][t][1][e]-w[0][t][1][e])/n-w[1][t][2][e]:0,w[x][t][2][e]=o&gt;0?2*(w[x][t][1][e]-w[x-1][t][1][e])/o-w[x-1][t][2][e]:0}for(let t=0;t&lt;s;++t){w[t][0][3]=[],w[t][g][3]=[];for(let e=0;e&lt;4;++e)n=i(w[t][1][0],w[t][0][0]),o=i(w[t][g][0],w[t][g-1][0]),w[t][0][3][e]=n&gt;0?2*(w[t][1][1][e]-w[t][0][1][e])/n-w[t][1][3][e]:0,w[t][g][3][e]=o&gt;0?2*(w[t][g][1][e]-w[t][g-1][1][e])/o-w[t][g-1][3][e]:0}for(let s=0;s&lt;x;++s)for(let r=0;r&lt;g;++r){let n=i(w[s][r][0],w[s+1][r][0]),o=i(w[s][r+1][0],w[s+1][r+1][0]),c=i(w[s][r][0],w[s][r+1][0]),x=i(w[s+1][r][0],w[s+1][r+1][0]),g=[[],[],[],[]];for(let t=0;t&lt;4;++t){(d=[])[0]=w[s][r][1][t],d[1]=w[s+1][r][1][t],d[2]=w[s][r+1][1][t],d[3]=w[s+1][r+1][1][t],d[4]=w[s][r][2][t]*n,d[5]=w[s+1][r][2][t]*n,d[6]=w[s][r+1][2][t]*o,d[7]=w[s+1][r+1][2][t]*o,d[8]=w[s][r][3][t]*c,d[9]=w[s+1][r][3][t]*x,d[10]=w[s][r+1][3][t]*c,d[11]=w[s+1][r+1][3][t]*x,d[12]=0,d[13]=0,d[14]=0,d[15]=0,u=f(d);for(let e=0;e&lt;9;++e){g[t][e]=[];for(let s=0;s&lt;9;++s)g[t][e][s]=p(u,e/8,s/8),g[t][e][s]&gt;255?g[t][e][s]=255:g[t][e][s]&lt;0&amp;&amp;(g[t][e][s]=0)}}h=[];for(let t=3*s,e=3*s+4;t&lt;e;++t)h.push(this.nodes[t].slice(3*r,3*r+4));l=y(h);for(let s=0;s&lt;8;++s)for(let r=0;r&lt;8;++r)(a=new m(l[s][r],[[[g[0][s][r],g[1][s][r],g[2][s][r],g[3][s][r]],[g[0][s][r+1],g[1][s][r+1],g[2][s][r+1],g[3][s][r+1]]],[[g[0][s+1][r],g[1][s+1][r],g[2][s+1][r],g[3][s+1][r]],[g[0][s+1][r+1],g[1][s+1][r+1],g[2][s+1][r+1],g[3][s+1][r+1]]]])).paint(t,e)}}}transform(t){if(t instanceof x)for(let e=0,s=this.nodes.length;e&lt;s;++e)for(let s=0,r=this.nodes[0].length;s&lt;r;++s)this.nodes[e][s]=this.nodes[e][s].add(t);else if(t instanceof g)for(let e=0,s=this.nodes.length;e&lt;s;++e)for(let s=0,r=this.nodes[0].length;s&lt;r;++s)this.nodes[e][s]=this.nodes[e][s].transform(t)}scale(t){for(let e=0,s=this.nodes.length;e&lt;s;++e)for(let s=0,r=this.nodes[0].length;s&lt;r;++s)this.nodes[e][s]=this.nodes[e][s].scale(t)}}document.querySelectorAll(&quot;rect,circle,ellipse,path,text&quot;).forEach((r,n)=&gt;{let o=r.getAttribute(&quot;id&quot;);o||(o=&quot;patchjs_shape&quot;+n,r.setAttribute(&quot;id&quot;,o));const i=r.style.fill.match(/^url\(\s*&quot;?\s*#([^\s&quot;]+)&quot;?\s*\)/),a=r.style.stroke.match(/^url\(\s*&quot;?\s*#([^\s&quot;]+)&quot;?\s*\)/);if(i&amp;&amp;i[1]){const a=document.getElementById(i[1]);if(a&amp;&amp;&quot;meshgradient&quot;===a.nodeName){const i=r.getBBox();let l=document.createElementNS(s,&quot;canvas&quot;);d(l,{width:i.width,height:i.height});const c=l.getContext(&quot;2d&quot;);let u=c.createImageData(i.width,i.height);const f=new b(a);&quot;objectBoundingBox&quot;===a.getAttribute(&quot;gradientUnits&quot;)&amp;&amp;f.scale(new x(i.width,i.height));const p=a.getAttribute(&quot;gradientTransform&quot;);null!=p&amp;&amp;f.transform(h(p)),&quot;userSpaceOnUse&quot;===a.getAttribute(&quot;gradientUnits&quot;)&amp;&amp;f.transform(new x(-i.x,-i.y)),f.paintMesh(u.data,l.width),c.putImageData(u,0,0);const y=document.createElementNS(t,&quot;image&quot;);d(y,{width:i.width,height:i.height,x:i.x,y:i.y});let g=l.toDataURL();y.setAttributeNS(e,&quot;xlink:href&quot;,g),r.parentNode.insertBefore(y,r),r.style.fill=&quot;none&quot;;const w=document.createElementNS(t,&quot;use&quot;);w.setAttributeNS(e,&quot;xlink:href&quot;,&quot;#&quot;+o);const m=&quot;patchjs_clip&quot;+n,M=document.createElementNS(t,&quot;clipPath&quot;);M.setAttribute(&quot;id&quot;,m),M.appendChild(w),r.parentElement.insertBefore(M,r),y.setAttribute(&quot;clip-path&quot;,&quot;url(#&quot;+m+&quot;)&quot;),u=null,l=null,g=null}}if(a&amp;&amp;a[1]){const o=document.getElementById(a[1]);if(o&amp;&amp;&quot;meshgradient&quot;===o.nodeName){const i=parseFloat(r.style.strokeWidth.slice(0,-2))*(parseFloat(r.style.strokeMiterlimit)||parseFloat(r.getAttribute(&quot;stroke-miterlimit&quot;))||1),a=r.getBBox(),l=Math.trunc(a.width+i),c=Math.trunc(a.height+i),u=Math.trunc(a.x-i/2),f=Math.trunc(a.y-i/2);let p=document.createElementNS(s,&quot;canvas&quot;);d(p,{width:l,height:c});const y=p.getContext(&quot;2d&quot;);let g=y.createImageData(l,c);const w=new b(o);&quot;objectBoundingBox&quot;===o.getAttribute(&quot;gradientUnits&quot;)&amp;&amp;w.scale(new x(l,c));const m=o.getAttribute(&quot;gradientTransform&quot;);null!=m&amp;&amp;w.transform(h(m)),&quot;userSpaceOnUse&quot;===o.getAttribute(&quot;gradientUnits&quot;)&amp;&amp;w.transform(new x(-u,-f)),w.paintMesh(g.data,p.width),y.putImageData(g,0,0);const M=document.createElementNS(t,&quot;image&quot;);d(M,{width:l,height:c,x:0,y:0});let S=p.toDataURL();M.setAttributeNS(e,&quot;xlink:href&quot;,S);const k=&quot;pattern_clip&quot;+n,A=document.createElementNS(t,&quot;pattern&quot;);d(A,{id:k,patternUnits:&quot;userSpaceOnUse&quot;,width:l,height:c,x:u,y:f}),A.appendChild(M),o.parentNode.appendChild(A),r.style.stroke=&quot;url(#&quot;+k+&quot;)&quot;,g=null,p=null,S=null}}})}();
</script>
</svg>
